<svg xmlns="http://www.w3.org/2000/svg" viewBox="0 0 142.07 123.35"><defs><style>.cls-1{isolation:isolate;}.cls-2{fill:#a6ddeb;}.cls-3{fill:#66c8ce;}.cls-4{fill:#f1b5ab;}.cls-5{fill:#235daa;}.cls-6{fill:#90d6e9;}.cls-7{fill:#263b7f;}.cls-8{fill:#d24c27;}.cls-9{fill:#721813;}.cls-10{fill:#983222;}.cls-11{fill:#f5948d;}.cls-12{fill:#fff;}.cls-13{fill:#1e1724;}.cls-14{fill:#05509c;}.cls-15{fill:#661513;}.cls-16{fill:#212a60;}.cls-17{fill:#7a1715;}.cls-18{fill:#f79738;}.cls-19{fill:#e18726;}.cls-20{fill:#cc4527;}.cls-21{fill:#654526;}.cls-22{fill:#1e2d58;}.cls-23{fill:#d64e27;}.cls-24{fill:#51351b;}.cls-25{fill:#aa2423;}.cls-26{fill:#761815;}.cls-27{fill:#4f331b;}.cls-28{fill:#b75349;}.cls-29{fill:#1da8b7;}.cls-30{fill:#732723;}.cls-31{fill:#a6d6b4;}.cls-32{fill:#63c4ba;}.cls-33{fill:#d0918e;}.cls-34{fill:#b97b7b;}.cls-35{fill:#ffc40c;}.cls-36{fill:#f7981d;}.cls-37{fill:#dd8426;}.cls-38{fill:#ea6b24;}.cls-39{fill:#845857;opacity:0.4;mix-blend-mode:multiply;}.cls-40{fill:#f5a42a;}.cls-41{fill:#93d6e8;}.cls-42{fill:#3a68b1;}.cls-43{fill:#416db4;}.cls-44{fill:#055257;}.cls-45{fill:#014245;}.cls-46{fill:#c23827;}.cls-47{fill:#0d64a5;}.cls-48{fill:#2b91be;}.cls-49{fill:#1e7ea0;}.cls-50{fill:#0c6f88;}.cls-51{fill:#0b9399;}.cls-52{fill:#77c7d7;}.cls-53{fill:#675352;}.cls-54{fill:#f06080;}.cls-55{fill:#b72d4c;}.cls-56{fill:#ed3455;}.cls-57{fill:#eb5729;}</style></defs><g class="cls-1"><g id="ëÎÓÈ_1" data-name="ëÎÓÈ 1"><path class="cls-2" d="M112.09,94.3a18,18,0,0,1-2.36.36c-1.84.2-4.5.41-7.35.55s-5.6.22-8.08.18h-.65c-2.3-.06-4.07-.16-5.41-.25L86.87,95c-1.53-.15-2.13-.28-2.13-.28-.34-1.55,2.81-20.81,3.81-24.23s4.6-8.36,4.6-8.36c0-.51.08-1.09.14-1.72.16-1.52.39-3.29.62-4.93.39-2.75.78-5.1.78-5.1,6.54.19,9.49-.6,9.5-.6s.3.64.66,1.46h0c.53,1.25,1.18,2.92,1.05,3.44a6.6,6.6,0,0,1-1.42,2.07l-.29.31c.11,1.43,1.88,13.63,3.27,18.39S112.09,94.3,112.09,94.3Z" transform="translate(-7.41 -7.79)"/><path class="cls-3" d="M105.9,54.7a6.6,6.6,0,0,1-1.42,2.07c-1.86.59-2.13,0-2.13,0,2.61-.74,2.55-4.7,2.5-5.56C105.38,52.51,106,54.18,105.9,54.7Z" transform="translate(-7.41 -7.79)"/><path class="cls-3" d="M97.57,56.82s-1.45,1.78-3.27,1a39.05,39.05,0,0,1-.51,5.62,62.28,62.28,0,0,0-4.94,16c-1.21,6.95-1.77,12.91-2,15.58-1.53-.15-2.13-.28-2.13-.28-.34-1.55,2.81-20.81,3.81-24.23s4.6-8.36,4.6-8.36c0-.51.08-1.09.14-1.72.16-1.52.39-3.29.62-4.93A4.36,4.36,0,0,0,97.57,56.82Z" transform="translate(-7.41 -7.79)"/><path class="cls-4" d="M89.59,68.42s-.31,1.21-.74,1.34-2.72-2.16-5.58-5.06A57.68,57.68,0,0,1,77.77,58c.65-2.3,6.36-9.13,6.36-9.13A9.19,9.19,0,0,1,86.69,51a10.14,10.14,0,0,1,.66.9,6.08,6.08,0,0,1,.9,1.87A21.09,21.09,0,0,1,84,57.52s2,3.51,3.13,5.59h0c0,.08.09.16.13.24A50.86,50.86,0,0,1,89.59,68.42Z" transform="translate(-7.41 -7.79)"/><path class="cls-5" d="M104.19,49.79a14.76,14.76,0,0,1-1.72.3l-.34,0a49,49,0,0,1-6.08.28H95.7l-1,0s-.39,2.37-.78,5.14c-.21,1.44-.41,3-.57,4.39,0,.17,0,.34,0,.5,0-.11-.05-.22-.08-.34C92.45,56.82,91,50.72,91,50.72a36,36,0,0,1-2.75,3s-.32-.74-.78-1.56A10.86,10.86,0,0,0,86.69,51,9.2,9.2,0,0,0,84,49c.3-.37,4.31-5.77,6.24-6.94a28,28,0,0,1,2.95-1.5l.32-.14a15.82,15.82,0,0,1,2.82-1s1.76.13,2.63.31a6,6,0,0,1,.94.25l.39.16a3.06,3.06,0,0,1,1.46,1.24c.63,1.09,1.07,1.24,1.14,2.77A38.5,38.5,0,0,0,104.19,49.79Z" transform="translate(-7.41 -7.79)"/><path class="cls-6" d="M96.05,50.42a.16.16,0,0,1-.13.16h0a.17.17,0,0,1-.17-.13v0l-2.49-9.9.32-.14,2.52,10Z" transform="translate(-7.41 -7.79)"/><path class="cls-4" d="M104.86,36.35c-1.17,1.22-3.47,1.56-5.48,1-.18-.06-.37-.12-.55-.2L98.54,37a8.48,8.48,0,0,1-3.08-2.7c-.27-.38-.42-.63-.42-.63a1.63,1.63,0,0,1-1-.4c-1.14-1-1.16-3.51-.26-3.93,1.13-.52,1.3.87,1.3.87a10.35,10.35,0,0,1,1.49-3.48,2.28,2.28,0,0,1,.29-.33c1-1,2.45-2.37,3-2.89h0l.24-.23c3.34.74,4.5.26,4.5.26s.05.13.12.34.07.21.11.35c.42,1.21,1.27,3.78,1.72,5.29A8.44,8.44,0,0,1,104.86,36.35Z" transform="translate(-7.41 -7.79)"/><path class="cls-7" d="M93.48,106.46c-.22,5.45,0,21.37,0,21.37h-1c-.13,0-5.45-17.69-5.67-21.93a12.53,12.53,0,0,1,2.34-7.53l-.87-3.24,1.36.09c1.12.06,2.46.12,4.05.16h.65C94.15,96.89,93.66,101.89,93.48,106.46Z" transform="translate(-7.41 -7.79)"/><path class="cls-7" d="M116.64,126.67l-1.21.25h-.05s-4.33-7.23-6.75-10.69-4.85-7.79-5.24-11a27,27,0,0,1,.57-7.49l-1.58-2.55c.72,0,1.43-.07,2.12-.12,2-.13,3.86-.28,5.23-.43.25,1.59,1.11,7.22,1.88,11.89C112.52,112.05,116.64,126.67,116.64,126.67Z" transform="translate(-7.41 -7.79)"/><path class="cls-4" d="M93.1,68.6c-.31.17-1.61-.79-2.56-.48,0,0,1.73.91,1.51,1.42s-1.65-.21-2-.42c.31.26,1.16,1.36,1,1.63s-1.6-1-1.6-1,.56,1.16.22,1.51-.74-1.52-.74-1.52a8.59,8.59,0,0,1,.74-1.34c.49-.67,1.12-1.77,1.86-1.47S93.41,68.42,93.1,68.6Z" transform="translate(-7.41 -7.79)"/><path class="cls-4" d="M113,58c-.2,1.9-.94,2.76-2,3a4.41,4.41,0,0,1-1.78-.1c-2-.48-2.81-3.16-3.5-5.72s-2.38-7.92-2.68-9.9a13.65,13.65,0,0,1-.18-3.21,1.58,1.58,0,0,1-.82-.35.11.11,0,0,1,0-.09c0-.16.35-.35.67-.49-.51.18-1.27.4-1.44.2s1.17-1.45,1.25-1.52c-.09,0-1.74.73-1.94.52S102,39,102.21,38.91c-.22.09-2.1.89-2.29.56s1.85-1.61,2.52-1.86a1.27,1.27,0,0,1,1.25.39s1-.18.91.56a1.36,1.36,0,0,1,.7,1.43,10.21,10.21,0,0,1-.65,2c.08.13,3.85,6,5.45,8.31S113.35,55.18,113,58Z" transform="translate(-7.41 -7.79)"/><path class="cls-8" d="M115.38,126.93l.48,1.34h5.84S118.8,125.24,115.38,126.93Z" transform="translate(-7.41 -7.79)"/><path class="cls-4" d="M99.38,37.32l-.07,1-.16,2.45c-1,.48-2.77-.74-2.77-1.17,0-.2-.19-1.31-.4-2.48-.25-1.4-.52-2.86-.52-2.86A8.48,8.48,0,0,0,98.54,37,6.59,6.59,0,0,0,99.38,37.32Z" transform="translate(-7.41 -7.79)"/><path class="cls-9" d="M107.11,22.33v.07c0,.85-1.24,1.4-2.39,1.48-.07-.21-.12-.34-.12-.34s-1.16.48-4.5-.26c0,0-2.07,1.87-3.28,3.12a7.55,7.55,0,0,0-1.47,2.72c-.21.63-.31,1.09-.31,1.09S94.89,29,94,29.26l-.22.08c-.46.21-.68,1-.63,1.78a3.52,3.52,0,0,0,.57,1.8,3.59,3.59,0,0,0,.32.35,7,7,0,0,0-.43,1c-.82,2.35,1.73,4.35,3.07,5.6a5.25,5.25,0,0,1,1.38,5h0a2.74,2.74,0,0,1-1.12,1.38,5.12,5.12,0,0,1-4.63.57c1.34-1,.48-3.38-1.43-4.46S88.07,40.46,88,37.55s3.42-5.26,3.42-5.26l.93-1.81s0,0,0,0,0,0,0,0l.46-.88c-.24-1.12-.83-3.94.22-6.24s4.11-3.85,8.17-3.46S107.11,21.34,107.11,22.33Z" transform="translate(-7.41 -7.79)"/><path class="cls-10" d="M95.35,29.12c-.21.63-.31,1.09-.31,1.09s-.17-1.39-1.3-.87c-.81.38-.88,2.44-.06,3.58-.86-.51-1.83-1.36-1.3-2.44,0,0,0,0,0,0s0,0,0,0A2.61,2.61,0,0,1,95.35,29.12Z" transform="translate(-7.41 -7.79)"/><path class="cls-6" d="M102.47,50.08h0a.17.17,0,0,1-.13.19h0a.16.16,0,0,1-.17-.13h0l-2.21-10.2.39.16Z" transform="translate(-7.41 -7.79)"/><path class="cls-11" d="M84,57.52s2,3.51,3.13,5.59a63.94,63.94,0,0,0-4.1-5c1.22-.9,3.44-4.68,4.3-6.2a6.08,6.08,0,0,1,.9,1.87A21.09,21.09,0,0,1,84,57.52Z" transform="translate(-7.41 -7.79)"/><path class="cls-11" d="M93.1,68.6c-.31.17-1.61-.79-2.56-.48,0,0,1.73.91,1.51,1.42s-1.65-.21-2-.42c.31.26,1.16,1.36,1,1.63s-1.6-1-1.6-1,.56,1.16.22,1.51-.74-1.52-.74-1.52a8.59,8.59,0,0,1,.74-1.34c.49-.67,1.12-1.77,1.86-1.47S93.41,68.42,93.1,68.6Z" transform="translate(-7.41 -7.79)"/><path class="cls-11" d="M111,61a4.41,4.41,0,0,1-1.78-.1c-2-.48-2.81-3.16-3.5-5.72s-2.38-7.92-2.68-9.9a13.65,13.65,0,0,1-.18-3.21,1.58,1.58,0,0,1-.82-.35.11.11,0,0,1,0-.09,2,2,0,0,0,1.88-.41,11.86,11.86,0,0,0,0,4.56,31,31,0,0,0,4,9.18A39.88,39.88,0,0,1,111,61Z" transform="translate(-7.41 -7.79)"/><path class="cls-11" d="M99.38,37.32l-.07,1A5.54,5.54,0,0,1,96,37.16c-.25-1.4-.52-2.86-.52-2.86A8.48,8.48,0,0,0,98.54,37,6.59,6.59,0,0,0,99.38,37.32Z" transform="translate(-7.41 -7.79)"/><path class="cls-11" d="M98.83,37.12,98.54,37a8.48,8.48,0,0,1-3.08-2.7c-.27-.38-.42-.63-.42-.63a1.63,1.63,0,0,1-1-.4c-1.14-1-1.16-3.51-.26-3.93,1.13-.52,1.3.87,1.3.87a10.35,10.35,0,0,1,1.49-3.48,10,10,0,0,0-.32,6.05A9.19,9.19,0,0,0,98.83,37.12Z" transform="translate(-7.41 -7.79)"/><path class="cls-11" d="M104.83,24.23a13.6,13.6,0,0,1-5-.72l.24-.23c3.34.74,4.5.26,4.5.26s.05.13.12.34S104.79,24.09,104.83,24.23Z" transform="translate(-7.41 -7.79)"/><path class="cls-10" d="M81.9,58.59a.17.17,0,0,1-.17-.16.18.18,0,0,1,.15-.19,6,6,0,0,0,2.5-1.19.17.17,0,0,1,.21.27,6.21,6.21,0,0,1-2.67,1.27Z" transform="translate(-7.41 -7.79)"/><path class="cls-10" d="M102,32.58h-.28a.09.09,0,0,1-.09-.09.1.1,0,0,1,.09-.08,3,3,0,0,0,1.85-.31,25.18,25.18,0,0,1-1.18-3.59.08.08,0,0,1,.09-.08.09.09,0,0,1,.08.08,26.44,26.44,0,0,0,1.19,3.57.08.08,0,0,1,0,.1S103.37,32.58,102,32.58Z" transform="translate(-7.41 -7.79)"/><path class="cls-9" d="M96.64,27.82a3,3,0,0,1,3.52-1.24s-.18.27-1.75.64S96.64,27.82,96.64,27.82Z" transform="translate(-7.41 -7.79)"/><path class="cls-9" d="M102.43,26.82a2.79,2.79,0,0,1,2-.51c1.12.19,1.21.8,1.21.8A17.57,17.57,0,0,0,102.43,26.82Z" transform="translate(-7.41 -7.79)"/><path class="cls-12" d="M98.4,33.58a6.69,6.69,0,0,0,3,.72,7.16,7.16,0,0,0,2.89-.49,3.79,3.79,0,0,1-3,2.2C99.29,36.15,98.4,33.58,98.4,33.58Z" transform="translate(-7.41 -7.79)"/><path class="cls-10" d="M94.45,32.58h0a.1.1,0,0,1-.08-.1,4.67,4.67,0,0,0-.65-2.3.1.1,0,0,1,0-.12.08.08,0,0,1,.11,0,4.8,4.8,0,0,1,.67,2.41A.08.08,0,0,1,94.45,32.58Z" transform="translate(-7.41 -7.79)"/><path class="cls-10" d="M94.12,31.84a.42.42,0,0,1-.41-.21c-.13-.31.31-.71.36-.75a.09.09,0,0,1,.11.13c-.1.09-.38.38-.31.55s.39.1.5.07a.09.09,0,0,1,.11.06.1.1,0,0,1-.06.11A1.46,1.46,0,0,1,94.12,31.84Z" transform="translate(-7.41 -7.79)"/><path class="cls-13" d="M99.24,28.91c0,.48-.17.88-.39.88s-.38-.4-.38-.88.17-.89.38-.89S99.24,28.42,99.24,28.91Z" transform="translate(-7.41 -7.79)"/><path class="cls-13" d="M104.19,28.73c0,.58-.18,1.06-.39,1.06s-.39-.48-.39-1.06.18-1.05.39-1.05S104.19,28.15,104.19,28.73Z" transform="translate(-7.41 -7.79)"/><path class="cls-14" d="M93.91,55.53c-.21,1.44-.41,3-.57,4.39l-.13.16C92.45,56.82,91,50.72,91,50.72a36,36,0,0,1-2.75,3s-.32-.74-.78-1.56c1.1-.89,3.58-3,4-4.77C91.45,47.42,91.64,52.9,93.91,55.53Z" transform="translate(-7.41 -7.79)"/><path class="cls-15" d="M96.64,39.9a5.25,5.25,0,0,1,1.38,5,5,5,0,0,0-2.56-4.49c-3.06-1.46-4.39-6-2.71-8.63.12-.21.25-.42.36-.63a3.52,3.52,0,0,0,.57,1.8,3.59,3.59,0,0,0,.32.35,7,7,0,0,0-.43,1C92.75,36.65,95.3,38.65,96.64,39.9Z" transform="translate(-7.41 -7.79)"/><path class="cls-15" d="M107.11,22.4c0,.85-1.24,1.4-2.39,1.48-.07-.21-.12-.34-.12-.34s-1.16.48-4.5-.26c0,0-2.07,1.87-3.28,3.12a7.55,7.55,0,0,0-1.47,2.72c-.21.63-.31,1.09-.31,1.09S94.89,29,94,29.26c.76-1.9,1.33-3.73,2.94-5A10.33,10.33,0,0,1,107.11,22.4Z" transform="translate(-7.41 -7.79)"/><path class="cls-16" d="M109.51,114.25c2.42,4.75,4.74,10.16,5.92,12.67h-.05s-4.33-7.23-6.75-10.69-4.85-7.79-5.24-11a27,27,0,0,1,.57-7.49l-1.58-2.55c.72,0,1.43-.07,2.12-.12l.62,2.8C104.17,101.35,106.25,107.85,109.51,114.25Z" transform="translate(-7.41 -7.79)"/><path class="cls-17" d="M116.2,127.33l0,0Z" transform="translate(-7.41 -7.79)"/><path class="cls-16" d="M92.8,127.83h-.36c-.13,0-5.45-17.69-5.67-21.93a12.53,12.53,0,0,1,2.34-7.53l-.87-3.24,1.36.09c0,1.6,0,4.32,0,4.32s-1.6,2-.74,9C89.62,114.72,92.2,125.41,92.8,127.83Z" transform="translate(-7.41 -7.79)"/><path class="cls-2" d="M75.87,126.1l-1.32.1h-.24s-1.21-2-3.59-5.68a61.46,61.46,0,0,1-6-12.37,10.68,10.68,0,0,1,.46-8.88s-2.07-4.37-3.63-8.87c-1.38-4-3.92-11.11-4.48-12.68L57,77.42s-.74,3.81-1.17,6.45c0,.24-.09.55-.14.94-.6,3.94-2.11,14.81-2.11,14.81,1.82,4.5,1,9.35-.61,13.25s-6.31,12.93-6.31,12.93l-.11,0-1.06.2S46.87,94.47,47,87.94s.13-20.38.13-20.38l1.3-4.77a.42.42,0,0,0,0-.07c0-.07,0-.19,0-.36-.05-.42-.12-1.11-.22-2,0-.12,0-.23,0-.36-.34-3.14-.9-8.37-1.26-12.58-.13-1.5-.23-2.86-.29-4a31.38,31.38,0,0,1,0-3.36c.07-1.54.23-3.05.41-4.38.39-2.82.88-4.87.88-4.87h0l3.06-.7c-.16,1.23-.29,3.27-.39,5.37-.07,1.54-.13,3.1-.17,4.41,0,1.85-.08,3.18-.08,3.18l13.11-.21a31,31,0,0,1,.2-3.34c.16-1.45.41-2.86.68-4.15a51.49,51.49,0,0,1,1.35-5l2.59.58c-.25,1-.54,2.71-.82,4.62-.19,1.35-.38,2.81-.54,4.23-.26,2.24-.46,4.4-.52,5.9-.08,2,0,5.84.14,9.21.08,1.92.16,3.7.22,4.94,0,.12,0,.23,0,.34,0,.84.07,1.35.07,1.35s0,.22.08.63a3.18,3.18,0,0,1,0,.34c.68,5.15,3.79,29.25,4.33,35C71.8,104,75.87,126.1,75.87,126.1Z" transform="translate(-7.41 -7.79)"/><path class="cls-3" d="M55.69,84.81c-.6,3.94-2.11,14.81-2.11,14.81,1.82,4.5,1,9.35-.61,13.25s-6.31,12.93-6.31,12.93l-.11,0c1.48-3.58,5.65-13.94,6.28-18.06a27.85,27.85,0,0,0,0-8.74Z" transform="translate(-7.41 -7.79)"/><path class="cls-3" d="M74.55,126.2h-.24s-1.21-2-3.59-5.68a61.46,61.46,0,0,1-6-12.37,10.68,10.68,0,0,1,.46-8.88s-2.07-4.37-3.63-8.87c-1.38-4-3.92-11.11-4.48-12.68l.07-.35,9.49,21.55c-1.06,6.84,1.15,11.25,2.34,15.67C70,118.09,73.16,123.77,74.55,126.2Z" transform="translate(-7.41 -7.79)"/><path class="cls-18" d="M65.59,30.37c0,.07,0,.13-.07.2a44.38,44.38,0,0,0-2.16,12.32l-13.11.21s.19-9.54.64-13l1.76-.42c1.67-.39,3.4-.79,4.59-1a4.88,4.88,0,0,0,.15,1.16,1.56,1.56,0,0,0,1.87,1C60.55,30.69,61,30.08,61,30s0-.25.05-.57Z" transform="translate(-7.41 -7.79)"/><path class="cls-18" d="M46.63,38.45a34.67,34.67,0,0,0-.1,5c.06,1.11.16,2.47.29,4l-.08,0h0a6.7,6.7,0,0,1-1.5-.22,9.67,9.67,0,0,1-4.17-2.42c-.08-5.89,1.28-10.49,1.82-11.3.72-1.08,1.21-1.82,4.63-2.55l.31-.06h0A57.43,57.43,0,0,0,46.63,38.45Z" transform="translate(-7.41 -7.79)"/><path class="cls-18" d="M76.13,38.08a58.6,58.6,0,0,1-.94,7.85,35.35,35.35,0,0,1-6.27,1.2l-1.38.17a61.08,61.08,0,0,0-1.08,7.6h0c-.1-2.87-.19-6.06-.17-8.2,0-.37,0-.71,0-1A112.51,112.51,0,0,1,68.18,31C70.78,31.53,76.13,32.63,76.13,38.08Z" transform="translate(-7.41 -7.79)"/><path class="cls-19" d="M70.88,39.8c-.83,2.43-1.7,6.19-2,7.33l-1.38.17a61.08,61.08,0,0,0-1.08,7.6h0c-.1-2.87-.19-6.06-.17-8.2,0,0,0,0,0-.06A20.91,20.91,0,0,1,70.88,39.8Z" transform="translate(-7.41 -7.79)"/><path class="cls-19" d="M46.82,47.42l-.08,0h0a6.7,6.7,0,0,1-1.5-.22c0-.32.14-6,1.39-8.72a34.67,34.67,0,0,0-.1,5C46.59,44.56,46.69,45.92,46.82,47.42Z" transform="translate(-7.41 -7.79)"/><path class="cls-19" d="M65.59,30.37c0,.07,0,.13-.07.2a19.63,19.63,0,0,1-7,1.35,8.56,8.56,0,0,1-5.91-2.2c1.67-.39,3.4-.79,4.59-1a4.88,4.88,0,0,0,.15,1.16,1.56,1.56,0,0,0,1.87,1C60.55,30.69,61,30.08,61,30s0-.25.05-.57Z" transform="translate(-7.41 -7.79)"/><path class="cls-20" d="M66.67,60.19a43.76,43.76,0,0,1-9.61,1,44.75,44.75,0,0,1-8.94-.87c0-.12,0-.23,0-.36a45.67,45.67,0,0,0,18.58-.15C66.66,60,66.67,60.08,66.67,60.19Z" transform="translate(-7.41 -7.79)"/><path class="cls-20" d="M66.86,62.51a52.49,52.49,0,0,1-9,.87V75.56a.16.16,0,0,1-.17.17.17.17,0,0,1-.17-.17V63.39h-1a39.55,39.55,0,0,1-8.18-.68c0-.07,0-.19,0-.36a42.12,42.12,0,0,0,9.38.68,53.55,53.55,0,0,0,9.1-.87A3.18,3.18,0,0,1,66.86,62.51Z" transform="translate(-7.41 -7.79)"/><path class="cls-4" d="M67.54,19.69a3.23,3.23,0,0,1-2.66,1.82s0,.08-.07.22h0c-.25.83-1.27,3.77-3.53,5.09a4.56,4.56,0,0,1-2.42.65,4.74,4.74,0,0,1-1.68-.3C54,26,52.93,22,52.93,22h-.09c-1.51,0-2.1-1.75-2.1-3.2a4.27,4.27,0,0,1,.12-1.05h0A3,3,0,0,1,51,17.2c.15-.3.35-.48.59-.45.89.09,1.09,1.49,1.12,2.3,0,.18,0,.37,0,.56,0,0,0-.09.07-.25a47.92,47.92,0,0,1,1.53-4.6c.71-1.66.91-2.08,1.65-1.78s5.32.91,6.1.48a3.69,3.69,0,0,1,1.63,1.63c.12.27.23.54.33.82a17.45,17.45,0,0,1,.6,2.05l0,0,.06.28v0c.15.65.21,1.08.21,1.08s.7-2,1.52-2.25a.78.78,0,0,1,.34,0C67.52,17.24,68.12,18.24,67.54,19.69Z" transform="translate(-7.41 -7.79)"/><path class="cls-21" d="M66.82,17.13a.78.78,0,0,0-.34,0c-.82.22-1.52,2.25-1.52,2.25a22.09,22.09,0,0,0-.6-2.62c-.09-.28-.18-.57-.29-.86a4.38,4.38,0,0,0-.33-.82,3.69,3.69,0,0,0-1.63-1.63c-.78.43-5.37-.17-6.1-.48s-.94.12-1.65,1.78c-.3.69-.62,1.63-.9,2.51-.4,1.24-.7,2.34-.7,2.34s0-.24,0-.56c0-.81-.23-2.21-1.12-2.3-.24,0-.44.15-.59.45a2,2,0,0,0-.18.53c-.29-.56.06-1.89.69-3.32.19-.44.41-.9.65-1.34,1-1.86,2.2-2.73,3.2-2.42a4.15,4.15,0,0,1,3.39-2.77A6.6,6.6,0,0,1,65.44,11a8.41,8.41,0,0,1,1.18,3.29A15,15,0,0,1,66.82,17.13Z" transform="translate(-7.41 -7.79)"/><polygon class="cls-10" points="43.45 9.94 43.45 9.94 43.45 9.94 43.45 9.94"/><path class="cls-10" d="M52.75,19c0,.19,0,.38,0,.56C52.76,19.6,52.77,19.37,52.75,19Z" transform="translate(-7.41 -7.79)"/><path class="cls-22" d="M46.66,125.8a10.55,10.55,0,0,0-5.43,2.49s4.17.11,6.08,0A13.69,13.69,0,0,0,46.66,125.8Z" transform="translate(-7.41 -7.79)"/><path class="cls-22" d="M74.17,126.13s.91-.87,2.94-.31a4.61,4.61,0,0,1,2.81,2.51H74.64Z" transform="translate(-7.41 -7.79)"/><path class="cls-4" d="M46.32,60.62a8.42,8.42,0,0,0,.17,1.26c-2-.38-6.06-3.2-6.06-3.2A8.47,8.47,0,0,1,40,56.82a17.4,17.4,0,0,1-.19-3c0-3.21.3-7.27,1.29-9.09a9.67,9.67,0,0,0,4.17,2.42,6.7,6.7,0,0,0,1.5.22h0c.33,1.15-.12,5.89-.17,6.33v0a5.8,5.8,0,0,1,1.75,1.6A6.49,6.49,0,0,0,46.32,60.62Z" transform="translate(-7.41 -7.79)"/><path class="cls-23" d="M50.5,35.51c-.07,1.54-.13,3.1-.17,4.41l-3.81.17c.07-1.54.23-3.05.41-4.38A8.62,8.62,0,0,1,50.5,35.51Z" transform="translate(-7.41 -7.79)"/><path class="cls-23" d="M67.36,35.57c-.19,1.35-.38,2.81-.54,4.23-.9,0-2.27-.14-3.26-.25.16-1.45.41-2.86.68-4.15C65.08,35.41,66.27,35.45,67.36,35.57Z" transform="translate(-7.41 -7.79)"/><path class="cls-20" d="M50.75,59.46a.16.16,0,0,1-.17-.13C50.07,57,49.49,47,49.47,46.6a.18.18,0,0,1,.05-.12.16.16,0,0,1,.13-.06c.85,0,1.72,0,2.6,0a88.53,88.53,0,0,0,11.45-.71.15.15,0,0,1,.13,0,.16.16,0,0,1,.06.13l.41,12.49a.18.18,0,0,1-.16.18l-13.38.87Zm-.92-12.69c.08,1.39.6,10,1.06,12.34L64,58.25l-.39-12.13a91,91,0,0,1-11.31.69C51.44,46.81,50.62,46.8,49.83,46.77Z" transform="translate(-7.41 -7.79)"/><path class="cls-20" d="M67.54,47.48h-.05a.17.17,0,0,1-.12-.21l.3-1.23c.54-2.35,1.56-6.73,2.66-8.36a.18.18,0,0,1,.24-.05.18.18,0,0,1,.05.24c-1.07,1.58-2.08,5.92-2.62,8.25-.12.53-.22,1-.29,1.24A.18.18,0,0,1,67.54,47.48Z" transform="translate(-7.41 -7.79)"/><path class="cls-4" d="M61.28,26.83c0,.39-.1,1-.15,1.56,0,.36-.07.71-.1,1S61,29.92,61,30s-.43.74-1.72.92a1.56,1.56,0,0,1-1.87-1,4.88,4.88,0,0,1-.15-1.16c0-.14,0-.29,0-.44,0-.43,0-.85,0-1.12a4.74,4.74,0,0,0,1.68.3A4.56,4.56,0,0,0,61.28,26.83Z" transform="translate(-7.41 -7.79)"/><path class="cls-11" d="M61.28,26.83c0,.39-.1,1-.15,1.56a5.25,5.25,0,0,1-3.91-.09c0-.43,0-.85,0-1.12a4.74,4.74,0,0,0,1.68.3A4.56,4.56,0,0,0,61.28,26.83Z" transform="translate(-7.41 -7.79)"/><path class="cls-11" d="M52.84,22c-1.51,0-2.1-1.75-2.1-3.2a4.27,4.27,0,0,1,.12-1.05h0A3,3,0,0,1,51,17.2c.15-.3.35-.48.59-.45.89.09,1.09,1.49,1.12,2.3,0,.18,0,.37,0,.56,0,0,0-.09.07-.25A12.15,12.15,0,0,0,52.84,22Z" transform="translate(-7.41 -7.79)"/><path class="cls-11" d="M67.54,19.69a3.23,3.23,0,0,1-2.66,1.82s0,.08-.07.22a10,10,0,0,0-.06-3.42c.15.65.21,1.08.21,1.08s.7-2,1.52-2.25a.78.78,0,0,1,.34,0C67.52,17.24,68.12,18.24,67.54,19.69Z" transform="translate(-7.41 -7.79)"/><path class="cls-11" d="M46.57,53.72a2.29,2.29,0,0,0-1.08.26,47.62,47.62,0,0,0-.25-6.81,6.7,6.7,0,0,0,1.5.22h0C47.07,48.54,46.62,53.28,46.57,53.72Z" transform="translate(-7.41 -7.79)"/><path class="cls-11" d="M46.49,61.88c-2-.38-6.06-3.2-6.06-3.2A8.47,8.47,0,0,1,40,56.82a18.24,18.24,0,0,0,6.35,3.8A8.42,8.42,0,0,0,46.49,61.88Z" transform="translate(-7.41 -7.79)"/><path class="cls-4" d="M75.19,45.93a51.42,51.42,0,0,1-1.7,7.39c-1.26,4-2.47,7.22-2.47,7.22s0,1.21-1.56,5.24a27.64,27.64,0,0,1-2.54,5.13,11.58,11.58,0,0,0-1.15-3.3,6.09,6.09,0,0,0-1.88-2.4,2.87,2.87,0,0,0-.77-.42,31.5,31.5,0,0,1,3.05-5.59s.08-1.58.29-4.3a61.08,61.08,0,0,1,1.08-7.6l1.39-.17A35,35,0,0,0,75.19,45.93Z" transform="translate(-7.41 -7.79)"/><path class="cls-11" d="M68.93,47.13A81.33,81.33,0,0,0,66.86,60l-3,5.17a2.87,2.87,0,0,0-.77-.42,31.5,31.5,0,0,1,3.05-5.59s.08-1.58.29-4.3a61.08,61.08,0,0,1,1.08-7.6Z" transform="translate(-7.41 -7.79)"/><path class="cls-13" d="M56.83,19c0,.5-.14.91-.32.91s-.32-.41-.32-.91.15-.91.32-.91S56.83,18.53,56.83,19Z" transform="translate(-7.41 -7.79)"/><path class="cls-13" d="M62.45,19c0,.5-.14.91-.32.91s-.32-.41-.32-.91.15-.91.32-.91S62.45,18.53,62.45,19Z" transform="translate(-7.41 -7.79)"/><path class="cls-10" d="M60.23,22.6a5.72,5.72,0,0,1-1-.1.08.08,0,0,1-.07-.1.1.1,0,0,1,.1-.07,3.36,3.36,0,0,0,2.08-.11,9.11,9.11,0,0,1-1.21-3.95.08.08,0,0,1,.08-.09s.08,0,.09.08.24,2.75,1.23,3.93c0,0,0,0,0,.06a.06.06,0,0,1,0,.06A2.14,2.14,0,0,1,60.23,22.6Z" transform="translate(-7.41 -7.79)"/><path class="cls-10" d="M65.46,20.47h0a.08.08,0,0,1-.07-.1,6.2,6.2,0,0,1,1.13-2.3.09.09,0,0,1,.14.1,6.27,6.27,0,0,0-1.1,2.23A.1.1,0,0,1,65.46,20.47Z" transform="translate(-7.41 -7.79)"/><path class="cls-10" d="M52.12,20.6h0a.08.08,0,0,1-.08-.09,7.57,7.57,0,0,0-.54-2.74.08.08,0,0,1,0-.11.09.09,0,0,1,.12,0,7.48,7.48,0,0,1,.55,2.82A.08.08,0,0,1,52.12,20.6Z" transform="translate(-7.41 -7.79)"/><path class="cls-10" d="M51.8,19.88a.33.33,0,0,1-.2-.05.25.25,0,0,1-.11-.23c0-.37.42-.64.44-.65a.09.09,0,0,1,.12,0,.08.08,0,0,1,0,.12s-.36.23-.36.5a.13.13,0,0,0,0,.09.52.52,0,0,0,.38,0,.1.1,0,0,1,.11.05.09.09,0,0,1,0,.12A1.05,1.05,0,0,1,51.8,19.88Z" transform="translate(-7.41 -7.79)"/><path class="cls-10" d="M66,20a1.1,1.1,0,0,1-.43-.1.08.08,0,0,1,0-.11.08.08,0,0,1,.11,0c.1,0,.43.14.54,0s-.14-.4-.31-.58a.07.07,0,0,1,0-.12A.09.09,0,0,1,66,19c.09.09.54.57.32.81A.41.41,0,0,1,66,20Z" transform="translate(-7.41 -7.79)"/><path class="cls-24" d="M54.69,17.36a.43.43,0,0,1,.11-.09,3.78,3.78,0,0,1,.33-.19c.14-.08.31-.14.49-.22l.3-.08a1.67,1.67,0,0,1,.3-.08l.32,0a1.51,1.51,0,0,1,.3,0,3.09,3.09,0,0,1,.55,0l.51.13A.13.13,0,0,1,58,17a.13.13,0,0,1-.12.09h0a4.39,4.39,0,0,1-.48,0,4.18,4.18,0,0,0-.49,0l-.28,0-.28,0a2.3,2.3,0,0,0-.28.06l-.28.06c-.17.06-.34.09-.47.15l-.34.11-.13,0a.14.14,0,0,1-.17-.07.16.16,0,0,1,0-.15Z" transform="translate(-7.41 -7.79)"/><path class="cls-24" d="M60.47,17.09l.12-.1.12-.1a.93.93,0,0,1,.18-.13,2.52,2.52,0,0,1,.52-.26l.32-.1a1.14,1.14,0,0,1,.33-.06l.34,0a1.82,1.82,0,0,1,.33,0l.3,0a.77.77,0,0,1,.27.07l.52.19a.13.13,0,0,1,.07.17.14.14,0,0,1-.13.08h0l-.51,0-.25,0h-.27a1.31,1.31,0,0,0-.28,0l-.29,0a4.8,4.8,0,0,0-.57.11c-.18.07-.35.1-.49.16l-.2.07-.17.07-.14,0a.13.13,0,0,1-.16-.1.13.13,0,0,1,.05-.13Z" transform="translate(-7.41 -7.79)"/><path class="cls-25" d="M62.34,23.14a7.57,7.57,0,0,1-.38,1c-.43.95-1.26,2.23-2.65,2.29a2.85,2.85,0,0,1-2.52-1.68,5.42,5.42,0,0,1-.51-1.18C56.37,23.57,60.43,23.8,62.34,23.14Z" transform="translate(-7.41 -7.79)"/><path class="cls-12" d="M62.34,23.14a7.57,7.57,0,0,1-.38,1,10.9,10.9,0,0,1-5.17.61,5.42,5.42,0,0,1-.51-1.18C56.37,23.57,60.43,23.8,62.34,23.14Z" transform="translate(-7.41 -7.79)"/><path class="cls-10" d="M55.09,65.35A3.89,3.89,0,0,1,53,64.6a.08.08,0,0,1,0-.12.09.09,0,0,1,.12,0c1.66,1.1,2.67.61,2.68.6a.09.09,0,0,1,.08.16A1.71,1.71,0,0,1,55.09,65.35Z" transform="translate(-7.41 -7.79)"/><path class="cls-26" d="M58.82,70.77a5.29,5.29,0,0,1,.67,0A1,1,0,0,1,58.82,70.77Z" transform="translate(-7.41 -7.79)"/><path class="cls-27" d="M53.46,17.27c-.4,1.24-.7,2.34-.7,2.34s0-.24,0-.56c0-.81-.23-2.21-1.12-2.3-.24,0-.44.15-.59.45a2,2,0,0,0-.18.53c-.29-.56.06-1.89.69-3.32A7.68,7.68,0,0,0,53.46,17.27Z" transform="translate(-7.41 -7.79)"/><path class="cls-27" d="M66.82,17.13a.78.78,0,0,0-.34,0c-.82.22-1.52,2.25-1.52,2.25a22.09,22.09,0,0,0-.6-2.62,13.29,13.29,0,0,0,2.26-2.49A15,15,0,0,1,66.82,17.13Z" transform="translate(-7.41 -7.79)"/><path class="cls-28" d="M60.6,129.63h0a.9.9,0,0,0-.07-.17Z" transform="translate(-7.41 -7.79)"/><path class="cls-29" d="M60.6,129.63l-.06-.17h0c-.22-.63-.72-1.25-1.09-1.13-.64.22.29,2.6,1,2.22a.59.59,0,0,0,.19-.23A1.17,1.17,0,0,0,60.6,129.63Z" transform="translate(-7.41 -7.79)"/><path class="cls-30" d="M70.66,129.21a.65.65,0,0,0-.07-.16Z" transform="translate(-7.41 -7.79)"/><path class="cls-30" d="M73.6,129a.64.64,0,0,0-.11-.26A2.22,2.22,0,0,0,73.6,129Z" transform="translate(-7.41 -7.79)"/><path class="cls-30" d="M74.17,127.83h0Z" transform="translate(-7.41 -7.79)"/><path class="cls-31" d="M74.17,126.57v1.26l-.09,0H74c-1.26-.17-5.95.55-9.48,1.14-1.78.3-3.26.58-3.87.69a.9.9,0,0,0-.07-.17c-.22-.63-.72-1.25-1.09-1.13,1-.34,2-.62,2.95-.86A37.38,37.38,0,0,1,74.17,126.57Z" transform="translate(-7.41 -7.79)"/><path class="cls-30" d="M60.62,130.32a.59.59,0,0,1-.19.23A.43.43,0,0,0,60.62,130.32Z" transform="translate(-7.41 -7.79)"/><polygon class="cls-30" points="53.13 121.66 53.13 121.66 53.13 121.66 53.13 121.66"/><path class="cls-32" d="M64.48,128.94c-1.78.3-3.26.58-3.87.69a.9.9,0,0,0-.07-.17c-.22-.63-.72-1.25-1.09-1.13,1-.34,2-.62,2.95-.86C63.06,128,63.82,128.5,64.48,128.94Z" transform="translate(-7.41 -7.79)"/><path class="cls-33" d="M66.9,127.44h-.09a.52.52,0,0,1-.51-.42L60.4,94.35,53.28,55a.52.52,0,0,1,1-.19l7.46,41.27,5.55,30.75A.51.51,0,0,1,66.9,127.44Z" transform="translate(-7.41 -7.79)"/><path class="cls-34" d="M66.9,127.44h-.09a.52.52,0,0,1-.51-.42L60.4,94.35l1.37,1.74,5.55,30.75A.51.51,0,0,1,66.9,127.44Z" transform="translate(-7.41 -7.79)"/><path class="cls-35" d="M74.4,129.46c-.38.27-.66-.15-.8-.45a.58.58,0,0,0-.11-.26,1.48,1.48,0,0,0,.11.26.71.71,0,0,1-.11.45c-.26.4-1.78-.41-1.78-.41a.82.82,0,0,1-.39.64c-.28.17-.53-.24-.66-.48a.65.65,0,0,0-.07-.16l.07.16c.06.2,0,.54-.59.75a1.53,1.53,0,0,1-1.52-.27,1,1,0,0,1-.77.57c-.65.18-1.39-.57-1.39-.57a1.1,1.1,0,0,1-.29.71.77.77,0,0,1-.27.19c-.53.23-1.3-.37-1.38-.43s.11.34-1,.6a2.9,2.9,0,0,1-2-.21.8.8,0,0,1-1.07,0,.43.43,0,0,0,.19-.23,1,1,0,0,0,0-.69c.65-.12,2.32-.42,4.27-.75,3.48-.59,7.87-1.25,9.08-1.08h.12l.09,0S75,129.05,74.4,129.46Z" transform="translate(-7.41 -7.79)"/><path class="cls-36" d="M66.1,130.4a.77.77,0,0,1-.27.19c-.53.23-1.3-.37-1.38-.43s.11.34-1,.6a2.9,2.9,0,0,1-2-.21.8.8,0,0,1-1.07,0,.43.43,0,0,0,.19-.23,1,1,0,0,0,0-.69c.65-.12,2.32-.42,4.27-.75A9.23,9.23,0,0,0,66.1,130.4Z" transform="translate(-7.41 -7.79)"/><path class="cls-36" d="M56.66,61.76a.54.54,0,0,1-.17.12l0,.09a1.51,1.51,0,0,1-.16,1.65l0,0a.69.69,0,0,1,0,.13,1.33,1.33,0,0,1,.09.48,1,1,0,0,1-.7.86c-.13,0-.09,1-1.65.87s-3.37-2.17-3.37-2.17c-1.69-.91-4.28-1.95-4.28-1.95a8.69,8.69,0,0,1-.17-1.17,6.49,6.49,0,0,1,2-5.36s.07-.07.07-.08l3.72,2.85c2.73-2.16,3.72-1.56,4.46-.39a3.45,3.45,0,0,1,.07,2.73,1.28,1.28,0,0,0-.07.16h0C57,61.24,56.82,61.6,56.66,61.76Z" transform="translate(-7.41 -7.79)"/><path class="cls-10" d="M56.4,63.79a3.11,3.11,0,0,1-1.1.19,3.75,3.75,0,0,1-2.45-1,.08.08,0,0,1,0-.12.09.09,0,0,1,.12,0,3.37,3.37,0,0,0,3.41.74l0,0A.69.69,0,0,1,56.4,63.79Z" transform="translate(-7.41 -7.79)"/><path class="cls-10" d="M56.49,61.88l0,.09a1.51,1.51,0,0,1-.32,0,3.92,3.92,0,0,1-2.39-1.09.09.09,0,0,1,.11-.13c1.44,1.18,2.36,1.1,2.72,1A.54.54,0,0,1,56.49,61.88Z" transform="translate(-7.41 -7.79)"/><path class="cls-10" d="M56.64,60.46a1.28,1.28,0,0,0-.07.16,3.73,3.73,0,0,1-1.76-1.92.08.08,0,0,1,0-.12.09.09,0,0,1,.12.05A3.52,3.52,0,0,0,56.64,60.46Z" transform="translate(-7.41 -7.79)"/><path class="cls-37" d="M56.49,64.27a1,1,0,0,1-.7.86c-.13,0-.09,1-1.65.87s-3.37-2.17-3.37-2.17c-1.69-.91-4.28-1.95-4.28-1.95a8.69,8.69,0,0,1-.17-1.17C47.67,61.56,53.14,65.15,56.49,64.27Z" transform="translate(-7.41 -7.79)"/><path class="cls-36" d="M66.94,71.16s-.3.41-.88,1.15l-.27.35c-.41.51-.92,1.14-1.54,1.88-1.77,2.12-3.5,4.24-5.19,4.71-1.32.38-2.28.11-2.35-.43a.74.74,0,0,1,.17-.51.73.73,0,0,1-.14-.07h0a1.14,1.14,0,0,1-.66-1.41l0,0-.11-.12A1.73,1.73,0,0,1,55.42,75h0a.26.26,0,0,1,0-.09l-.09-.1a1.59,1.59,0,0,1-.26-1.94,4.34,4.34,0,0,1,3.7-2.12,5.29,5.29,0,0,1,.67,0s1.73-3,2.38-4.2l.05-.09c.06-.1.11-.2.16-.3a15.7,15.7,0,0,0,.74-1.52,1.71,1.71,0,0,1,.3.08,3.38,3.38,0,0,1,.86.48,6.31,6.31,0,0,1,1.79,2.34,11.39,11.39,0,0,1,1.13,3.24s0,0,0,.06A2.43,2.43,0,0,1,66.94,71.16Z" transform="translate(-7.41 -7.79)"/><path class="cls-10" d="M57.58,73.77a.09.09,0,0,1-.06.1A5.38,5.38,0,0,0,55.42,75a.26.26,0,0,1,0-.09l-.09-.1a5.52,5.52,0,0,1,2.1-1.13A.08.08,0,0,1,57.58,73.77Z" transform="translate(-7.41 -7.79)"/><path class="cls-10" d="M58.43,75.46a.1.1,0,0,1-.08.1,4,4,0,0,0-2.3,1.25l-.11-.12a4,4,0,0,1,2.39-1.3A.09.09,0,0,1,58.43,75.46Z" transform="translate(-7.41 -7.79)"/><path class="cls-10" d="M58.61,77.53a3.31,3.31,0,0,1-1.8.88.61.61,0,0,1,.07-.1.73.73,0,0,1-.14-.07,3,3,0,0,0,1.76-.84.08.08,0,0,1,.12,0A.08.08,0,0,1,58.61,77.53Z" transform="translate(-7.41 -7.79)"/><path class="cls-37" d="M64,65.27c-1,1.29-3.81,5.34-4.49,5.55,0,0,1.73-3,2.38-4.2l.05-.09c.06-.1.11-.2.16-.3a15.7,15.7,0,0,0,.74-1.52,1.71,1.71,0,0,1,.3.08A3.38,3.38,0,0,1,64,65.27Z" transform="translate(-7.41 -7.79)"/><path class="cls-37" d="M66.94,71.16s-.3.41-.88,1.15l-.27.35c-.41.51-.92,1.14-1.54,1.88-1.77,2.12-3.5,4.24-5.19,4.71-1.32.38-2.28.11-2.35-.43l2.69-.91c2.92-1,6.29-5.37,7.5-7.06,0,0,0,0,0,.06A2.43,2.43,0,0,1,66.94,71.16Z" transform="translate(-7.41 -7.79)"/><path class="cls-8" d="M91.8,125.87a23.3,23.3,0,0,0-.61,2.28,25.4,25.4,0,0,0,3.46-.22l-1.17-2.21Z" transform="translate(-7.41 -7.79)"/><path class="cls-38" d="M13.3,89.22l-1.15,39.62H10.44c-1.25,0-2.77,0-3,0s4.3-29.7,5.56-37.67C13.18,89.94,13.3,89.22,13.3,89.22Z" transform="translate(-7.41 -7.79)"/><polygon class="cls-38" points="19.29 121.05 13.81 121.05 12.8 118.76 13 114.67 17.76 114.67 19.29 121.05"/><path class="cls-39" d="M13,91.17c.19-1.23.31-2,.31-2l-1.15,39.62H10.44Z" transform="translate(-7.41 -7.79)"/><polygon class="cls-39" points="15.88 121.05 13.81 121.05 12.8 118.76 13 114.67 15.06 114.67 15.88 121.05"/><polygon class="cls-40" points="30.04 120.97 21.57 120.97 21.57 114.67 13 114.67 12.69 121.05 4.74 121.05 5.89 81.43 23.98 81.43 30.04 120.97"/><rect class="cls-38" x="9.79" y="83.9" width="11.59" height="2.25" rx="0.48"/><polygon class="cls-18" points="30.04 120.97 22.96 120.97 23.48 81.43 23.98 81.43 30.04 120.97"/><polygon class="cls-41" points="7.21 105.07 25.41 105.07 15.59 91.55 7.21 105.07"/><path class="cls-42" d="M30.92,111.94H16.4a.11.11,0,0,1-.1-.06.13.13,0,0,1,0-.12L23,101a.11.11,0,0,1,.1,0,.13.13,0,0,1,.1,0L31,111.73a.11.11,0,0,1,.05.09A.12.12,0,0,1,30.92,111.94Zm-14.3-.24H30.67l-7.58-10.45Z" transform="translate(-7.41 -7.79)"/><path class="cls-35" d="M36.31,127.58a.12.12,0,0,1,0,.1.18.18,0,0,1-.1,0H29.83a.13.13,0,0,1-.12-.12v-6H19.09v6.08a.13.13,0,0,1-.12.12H13.3a.1.1,0,0,1-.09,0,.08.08,0,0,1,0-.08l1.29-38.46h.24l-1.29,38.34h5.42v-6.08a.12.12,0,0,1,.13-.12H29.83a.12.12,0,0,1,.12.12v6h6.1l-5.7-38.26h.24Z" transform="translate(-7.41 -7.79)"/><path class="cls-35" d="M16.11,92.82c0,.49-.2.89-.45.89s-.46-.4-.46-.89.21-.88.46-.88S16.11,92.33,16.11,92.82Z" transform="translate(-7.41 -7.79)"/><path class="cls-35" d="M30.33,92.82c0,.49-.21.89-.46.89s-.45-.4-.45-.89.2-.88.45-.88S30.33,92.33,30.33,92.82Z" transform="translate(-7.41 -7.79)"/><polygon class="cls-43" points="15.59 101.69 14.34 96.86 17.68 96.86 16.31 101.69 15.59 101.69"/><path class="cls-43" d="M22.81,110.61a.61.61,0,1,1,.6.61A.6.6,0,0,1,22.81,110.61Z" transform="translate(-7.41 -7.79)"/><path class="cls-36" d="M146.6,112l-.34,2-2.32,13.86a35.44,35.44,0,0,1-5.87.82,32.76,32.76,0,0,1-9.71-.82l-1.83-15.24-.08-.66Z" transform="translate(-7.41 -7.79)"/><path class="cls-37" d="M146.6,112l-.34,2a35.31,35.31,0,0,1-5.35.55,48.73,48.73,0,0,1-14.38-1.93l-.08-.66Z" transform="translate(-7.41 -7.79)"/><path class="cls-37" d="M146.6,112l-.34,2-2.32,13.86a35.44,35.44,0,0,1-5.87.82,141.18,141.18,0,0,0,2.84-14.13c.12-.92.22-1.79.29-2.59Z" transform="translate(-7.41 -7.79)"/><path class="cls-44" d="M135.68,111h-2s-.35-1.82-.71-3.62-.65-3.31-.68-3.5a2.27,2.27,0,0,0,1.67.31l1.19,4.85Z" transform="translate(-7.41 -7.79)"/><path class="cls-45" d="M135.68,111h-2s-.35-1.82-.71-3.62a14.61,14.61,0,0,0,2.18,1.66Z" transform="translate(-7.41 -7.79)"/><path class="cls-29" d="M137.31,100.52l-1.05.24L135,101,134.4,99a3,3,0,0,0,1.86-.39,1.89,1.89,0,0,0,.45-.36Z" transform="translate(-7.41 -7.79)"/><path class="cls-44" d="M137.31,100.52l-1.05.24V98.58a1.89,1.89,0,0,0,.45-.36Z" transform="translate(-7.41 -7.79)"/><polygon class="cls-23" points="123.56 103.2 119.15 103.2 119.77 98.4 122.09 98.4 123.56 103.2"/><polygon class="cls-46" points="123.56 103.2 121.57 103.2 121.31 98.4 122.09 98.4 123.56 103.2"/><path class="cls-29" d="M126.05,104.51c-.31,1.56-1.57,2.08-1.74,1.93s-.12-.45.32-1.17a3.65,3.65,0,0,0,.39-1.6c0-.22,0-.36,0-.36l1.08.13A4,4,0,0,1,126.05,104.51Z" transform="translate(-7.41 -7.79)"/><path class="cls-44" d="M126.05,104.51c-.3-.26-.77-.63-1-.84,0-.22,0-.36,0-.36l1.08.13A4,4,0,0,1,126.05,104.51Z" transform="translate(-7.41 -7.79)"/><path class="cls-31" d="M134,104.19l2.79-2.31h3.83l-3.31-1.36L135,101l-2.71,2.84S132.74,104.43,134,104.19Z" transform="translate(-7.41 -7.79)"/><path class="cls-31" d="M134.4,99s.48-.82,2.31-.75C136.71,98.22,136.16,99.22,134.4,99Z" transform="translate(-7.41 -7.79)"/><polygon class="cls-47" points="118.51 93.25 117.5 93.25 117.22 95.48 118.26 95.63 118.51 93.25"/><polygon class="cls-48" points="124.92 95.28 123.14 96.45 118.26 95.63 118.28 95.35 118.44 93.25 123.35 93.25 124.45 94.67 124.92 95.28"/><path class="cls-47" d="M132.33,103.08l-1.78,1.16-4.88-.82,0-.28c1,0,4.34.17,4.34.17l1.83-.84Z" transform="translate(-7.41 -7.79)"/><polygon class="cls-49" points="122.29 96.29 122.29 97.09 119.22 97.09 119.22 95.74 122.29 96.29"/><polygon class="cls-50" points="122.29 96.29 122.29 96.87 119.22 96 119.22 95.74 122.29 96.29"/><polygon class="cls-36" points="122.09 98.4 119.77 98.4 119.77 97.09 121.73 97.09 122.09 98.4"/><polygon class="cls-37" points="122.09 98.4 121.27 98.4 120.5 97.09 121.73 97.09 122.09 98.4"/><polygon class="cls-23" points="118.04 93.9 117.93 94.95 117.5 94.91 117 94.85 117.11 93.78 117.97 93.89 118.04 93.9"/><polygon class="cls-46" points="118.04 93.9 117.93 94.95 117.5 94.91 117.97 93.89 118.04 93.9"/><polygon class="cls-29" points="135.97 103.2 128.27 103.2 127.76 101.15 126.59 96.4 129.39 94.09 133.21 94.09 135.14 100.46 135.97 103.2"/><path class="cls-51" d="M143.37,111h-7.69l-.51-2.06a24.77,24.77,0,0,0,3.52.36,14.39,14.39,0,0,0,3.86-1Z" transform="translate(-7.41 -7.79)"/><path class="cls-35" d="M147.08,111.64a.64.64,0,0,1-.64.63H126.56a.63.63,0,0,1-.64-.63.65.65,0,0,1,.64-.64h19.88A.64.64,0,0,1,147.08,111.64Z" transform="translate(-7.41 -7.79)"/><path class="cls-36" d="M147.08,111.64a.64.64,0,0,1-.64.63h-7.17l.65-1.27h6.52A.64.64,0,0,1,147.08,111.64Z" transform="translate(-7.41 -7.79)"/><path class="cls-52" d="M136.5,111c0,.3-.07.74-.12,1.27-.17,2-.51,5.32-.93,7.77-.31,1.8-.67,3.11-1,3.06-1.16-.15-.72-3.43-.8-3.55s-1,3.71-2,3.55-.08-3.68,0-4c-.13.28-1.58,3.47-2.38,3.13s.6-4.43.62-4.54-2,2.9-2.66,2.6.12-1.31.72-3.33a41.41,41.41,0,0,1,2-4.72c.25-.52.47-1,.63-1.27Z" transform="translate(-7.41 -7.79)"/><path class="cls-23" d="M149.44,118.26c-.23-.39-1.49-.4-2.63-.59l-.34-.07-.5-.13h0c-.82-.27-1.81-.76-2.62-1a2.14,2.14,0,0,0-.32-.08l-.31,0a.79.79,0,0,0-.68.3l-.61-1.91-.11-.32-.52-1.62-.1-.32-.5-1.54a3.3,3.3,0,0,1,1.32-.15,1.26,1.26,0,0,1,.47.17l.12.09a4.84,4.84,0,0,1,1-1.24l.27-.17a2.6,2.6,0,0,1,1.26-.31h.24l.2,0a3.19,3.19,0,0,1,2.14,1.27,2.35,2.35,0,0,1,.19.25,11.56,11.56,0,0,1,1.31,2.66c0,.1.07.19.11.28a0,0,0,0,0,0,0,11.33,11.33,0,0,1,.59,3.13h0c0,.38,0,.71,0,1S149.44,118.19,149.44,118.26Z" transform="translate(-7.41 -7.79)"/><path class="cls-53" d="M149.47,118.45a.22.22,0,0,0,0-.18.49.49,0,0,0,0,.17S149.48,118.45,149.47,118.45Z" transform="translate(-7.41 -7.79)"/><path class="cls-53" d="M149.46,118.44a0,0,0,0,1,0,0S149.48,118.44,149.46,118.44Z" transform="translate(-7.41 -7.79)"/><path class="cls-46" d="M149.46,118.44a.49.49,0,0,1,0-.17c-.28-.5-2.2-.4-3.47-.8h0c-1.41-.46-3.35-1.59-3.93-.77-.26.39,1.51.84,2.8,1.28s4.53,1.19,4.64.47A0,0,0,0,0,149.46,118.44Z" transform="translate(-7.41 -7.79)"/><path class="cls-54" d="M148.52,128.76l-4.59,1.12a12.28,12.28,0,0,1,.2,1.26l4.63-.93Z" transform="translate(-7.41 -7.79)"/><polygon class="cls-55" points="131.87 121.9 131.9 123.03 136.72 123.34 136.52 122.08 131.87 121.9"/><path class="cls-56" d="M143.93,127.94c-.15-.07-4.66,1.75-4.66,1.75l4.66.19,4.59-1.12S144.08,128,143.93,127.94Z" transform="translate(-7.41 -7.79)"/><path class="cls-2" d="M138.07,120.94c-1.42.22-.87-4.42-.77-5.19-.12.69-.77,4.39-1.74,4.32l-.11,0c-.83-.39.11-4.61.21-5.08-.13.44-1.23,3.93-2.06,3.75s0-4.67,0-4.67-1.71,3.79-2.63,3.47c-.62-.21.11-3.25.72-5.24.16-.52.32-1,.43-1.27h7.16c0,.3,0,.74,0,1.27C139.33,115.17,139.22,120.76,138.07,120.94Z" transform="translate(-7.41 -7.79)"/><path class="cls-57" d="M143.34,116.51a2.14,2.14,0,0,0-.32-.08c-.09-.59-.17-1.13-.26-1.64h0c0-.11,0-.21,0-.32-.11-.62-.23-1.19-.37-1.71h0l-.09-.31a6.53,6.53,0,0,0-.74-1.6,1.26,1.26,0,0,1,.47.17,6.66,6.66,0,0,1,.58,1.39c0,.1.06.2.1.3.14.53.26,1.11.37,1.75a3.06,3.06,0,0,1,.05.32c.09.51.17,1.06.25,1.66A.15.15,0,0,1,143.34,116.51Z" transform="translate(-7.41 -7.79)"/><path class="cls-57" d="M146.81,117.67l-.34-.07a18.25,18.25,0,0,0-1-3.07l-.12-.31c-.3-.69-.61-1.35-.92-1.94l-.15-.28c-.48-.91-.93-1.66-1.23-2.13l.27-.17c.31.49.77,1.25,1.27,2.19l.15.29c.31.61.63,1.28.93,2,0,.1.08.2.13.3A19,19,0,0,1,146.81,117.67Z" transform="translate(-7.41 -7.79)"/><path class="cls-57" d="M149.43,118a29.22,29.22,0,0,0-1.78-3.83l-.16-.29c-.45-.8-.91-1.57-1.35-2.25-.06-.09-.11-.18-.17-.26-.53-.82-1-1.5-1.36-2h.24l.2,0c.36.47.78,1.09,1.23,1.79l.16.27c.45.71.92,1.5,1.37,2.32l.16.3c.53,1,1,2,1.43,2.94h0C149.42,117.41,149.42,117.74,149.43,118Z" transform="translate(-7.41 -7.79)"/><path class="cls-57" d="M147.38,110.93c-.26.17-.58.35-.94.54l-.3.14a11.1,11.1,0,0,1-1.37.57l-.31.1a11.85,11.85,0,0,1-1.8.43l-.32.05h0a12.88,12.88,0,0,1-1.55.1l-.1-.32a11.28,11.28,0,0,0,1.56-.09l.31,0a11.84,11.84,0,0,0,1.75-.41l.31-.11a10.84,10.84,0,0,0,1.35-.54l.31-.15c.35-.18.66-.36.91-.52A2.35,2.35,0,0,1,147.38,110.93Z" transform="translate(-7.41 -7.79)"/><path class="cls-57" d="M148.81,113.9l-.84.19-.32.06c-.55.12-1.16.23-1.82.33l-.33,0c-.77.11-1.58.2-2.42.25h-.32l-.86,0h-.48l-.11-.32c.46,0,.93,0,1.4,0H143c.8,0,1.6-.13,2.35-.24l.32,0c.65-.1,1.25-.21,1.79-.32l.32-.07c.33-.07.63-.13.88-.2,0,.1.07.19.11.28A0,0,0,0,0,148.81,113.9Z" transform="translate(-7.41 -7.79)"/></g></g></svg>