<svg width="244" height="78" xmlns="http://www.w3.org/2000/svg">
 <!---->
 <defs>
  <!---->
  <linearGradient y2="0%" x2="100%" y1="0%" x1="0%" id="4faacece-b0f8-4084-b825-3e9b30d646ad" gradientTransform="rotate(25)">
   <stop stop-color="#0015D6" offset="0%"/>
   <stop stop-color="#0989FB" offset="100%"/>
  </linearGradient>
 </defs>
 <defs>
  <!---->
 </defs>
 <defs>
  <!---->
 </defs>
 <g>
  <title>background</title>
  <rect fill="none" id="canvas_background" height="80" width="246" y="-1" x="-1"/>
 </g>
 <g>
  <title>Layer 1</title>
  <g transform="matrix(2.39287, 0, 0, 2.39287, 107.431, 121.204)" fill="#000000" id="e769eab4-8885-4514-b52a-f09ac7d585ee">
   <path id="svg_2" d="m-6.7989,-31.84877l0.88,0l-0.06,2.03l0,0q-0.67,0.36 -1.38,0.52l0,0l0,0q-0.7,0.15 -1.45,0.15l0,0l0,0q-1.06,0 -1.94,-0.35l0,0l0,0q-0.87,-0.36 -1.49,-1.01l0,0l0,0q-0.63,-0.65 -0.97,-1.55l0,0l0,0q-0.34,-0.9 -0.34,-1.97l0,0l0,0q0,-1.07 0.36,-1.97l0,0l0,0q0.35,-0.9 0.98,-1.56l0,0l0,0q0.63,-0.65 1.5,-1.01l0,0l0,0q0.87,-0.36 1.9,-0.36l0,0l0,0q0.58,0 1.28,0.13l0,0l0,0q0.7,0.13 1.41,0.54l0,0l0.06,2.04l-0.88,0l-0.28,-1.66l0,0q-0.37,-0.19 -0.72,-0.26l0,0l0,0q-0.35,-0.08 -0.71,-0.08l0,0l0,0q-0.7,0 -1.32,0.27l0,0l0,0q-0.61,0.28 -1.08,0.8l0,0l0,0q-0.46,0.53 -0.72,1.31l0,0l0,0q-0.27,0.78 -0.27,1.81l0,0l0,0q0,1.02 0.25,1.79l0,0l0,0q0.24,0.78 0.67,1.31l0,0l0,0q0.44,0.54 1.05,0.81l0,0l0,0q0.61,0.27 1.32,0.27l0,0l0,0q0.41,0 0.83,-0.09l0,0l0,0q0.42,-0.09 0.84,-0.29l0,0l0.28,-1.62zm4.13,1.79l1.1,0.2l0,0.5l-3.44,0l0,-0.5l1.1,-0.2l0,0q0.02,-0.57 0.02,-1.12l0,0l0,0q0.01,-0.56 0.01,-1.12l0,0l0,-6l-1.15,-0.14l0,-0.49l2.19,-0.63l0.19,0.11l-0.05,1.99l0,5.16l0,0q0,0.56 0.01,1.12l0,0l0,0q0,0.56 0.02,1.12l0,0zm3.4,-3.29l2.55,0l0,0q0.5,0 0.67,-0.21l0,0l0,0q0.17,-0.21 0.17,-0.52l0,0l0,0q0,-0.29 -0.12,-0.56l0,0l0,0q-0.12,-0.28 -0.32,-0.49l0,0l0,0q-0.21,-0.21 -0.48,-0.33l0,0l0,0q-0.27,-0.13 -0.6,-0.13l0,0l0,0q-0.29,0 -0.6,0.12l0,0l0,0q-0.32,0.12 -0.58,0.39l0,0l0,0q-0.26,0.28 -0.45,0.7l0,0l0,0q-0.19,0.43 -0.24,1.03l0,0zm4.45,0.6l-4.48,0l0,0q0.03,1.31 0.64,2.01l0,0l0,0q0.62,0.7 1.63,0.7l0,0l0,0q0.67,0 1.12,-0.28l0,0l0,0q0.45,-0.28 0.82,-0.73l0,0l0.34,0.26l0,0q-0.36,0.76 -1.04,1.2l0,0l0,0q-0.68,0.44 -1.65,0.44l0,0l0,0q-0.71,0 -1.29,-0.24l0,0l0,0q-0.57,-0.23 -0.98,-0.69l0,0l0,0q-0.4,-0.45 -0.63,-1.1l0,0l0,0q-0.22,-0.64 -0.22,-1.44l0,0l0,0q0,-0.8 0.25,-1.46l0,0l0,0q0.25,-0.67 0.7,-1.14l0,0l0,0q0.44,-0.48 1.02,-0.75l0,0l0,0q0.59,-0.26 1.25,-0.26l0,0l0,0q0.55,0 1.03,0.18l0,0l0,0q0.48,0.18 0.83,0.53l0,0l0,0q0.35,0.35 0.56,0.86l0,0l0,0q0.2,0.5 0.2,1.13l0,0l0,0q0,0.24 -0.03,0.43l0,0l0,0q-0.03,0.2 -0.07,0.35l0,0zm5.15,1.92l0,-2.15l0,0q-0.36,0.09 -0.7,0.21l0,0l0,0q-0.35,0.11 -0.57,0.19l0,0l0,0q-0.46,0.18 -0.74,0.37l0,0l0,0q-0.27,0.19 -0.41,0.37l0,0l0,0q-0.14,0.19 -0.18,0.37l0,0l0,0q-0.04,0.18 -0.04,0.33l0,0l0,0q0,0.28 0.07,0.45l0,0l0,0q0.08,0.17 0.19,0.3l0,0l0,0q0.32,0.32 0.86,0.32l0,0l0,0q0.16,0 0.32,-0.04l0,0l0,0q0.15,-0.03 0.32,-0.12l0,0l0,0q0.17,-0.09 0.38,-0.24l0,0l0,0q0.21,-0.15 0.5,-0.36l0,0zm2.24,0.56l0.28,0.31l0,0q-0.24,0.45 -0.52,0.6l0,0l0,0q-0.28,0.14 -0.61,0.14l0,0l0,0q-0.59,0 -0.93,-0.28l0,0l0,0q-0.33,-0.29 -0.43,-0.77l0,0l0,0q-0.28,0.28 -0.52,0.49l0,0l0,0q-0.24,0.21 -0.47,0.35l0,0l0,0q-0.24,0.14 -0.49,0.21l0,0l0,0q-0.26,0.07 -0.56,0.07l0,0l0,0q-0.38,0 -0.73,-0.11l0,0l0,0q-0.34,-0.11 -0.6,-0.34l0,0l0,0q-0.26,-0.22 -0.4,-0.55l0,0l0,0q-0.15,-0.33 -0.15,-0.76l0,0l0,0q0,-0.3 0.1,-0.58l0,0l0,0q0.1,-0.28 0.35,-0.53l0,0l0,0q0.25,-0.26 0.7,-0.52l0,0l0,0q0.46,-0.26 1.17,-0.51l0,0l0,0q0.33,-0.12 0.74,-0.23l0,0l0,0q0.41,-0.12 0.83,-0.24l0,0l0,-0.37l0,0q0,-0.51 -0.08,-0.84l0,0l0,0q-0.07,-0.33 -0.23,-0.52l0,0l0,0q-0.15,-0.18 -0.39,-0.26l0,0l0,0q-0.25,-0.08 -0.6,-0.08l0,0l0,0q-0.15,0 -0.33,0.02l0,0l0,0q-0.17,0.01 -0.38,0.05l0,0l-0.28,0.98l0,0q-0.2,0.67 -0.76,0.67l0,0l0,0q-0.29,0 -0.46,-0.16l0,0l0,0q-0.17,-0.16 -0.2,-0.44l0,0l0,0q0.2,-0.8 0.93,-1.28l0,0l0,0q0.72,-0.48 1.8,-0.48l0,0l0,0q1.11,0 1.64,0.56l0,0l0,0q0.53,0.56 0.53,1.9l0,0l0,3l0,0q0,0.82 0.46,0.82l0,0l0,0q0.17,0 0.3,-0.07l0,0l0,0q0.12,-0.08 0.22,-0.16l0,0l0.07,-0.09zm7.39,0.21l0.98,0.2l0,0.5l-3.24,0l0,-0.5l1.03,-0.2l0,0q0.02,-0.52 0.02,-1.13l0,0l0,0q0.01,-0.62 0.01,-1.11l0,0l0,-1.23l0,0q0,-0.95 -0.27,-1.33l0,0l0,0q-0.26,-0.38 -0.88,-0.38l0,0l0,0q-0.49,0 -0.94,0.21l0,0l0,0q-0.46,0.21 -0.99,0.67l0,0l0,2.06l0,0q0,0.46 0.01,1.09l0,0l0,0q0,0.62 0.02,1.15l0,0l0.98,0.2l0,0.5l-3.25,0l0,-0.5l1.04,-0.2l0,0q0.01,-0.53 0.02,-1.15l0,0l0,0q0,-0.61 0,-1.09l0,0l0,-0.71l0,0q0,-0.58 -0.01,-0.95l0,0l0,0q-0.01,-0.38 -0.03,-0.8l0,0l-1.1,-0.13l0,-0.49l1.94,-0.85l0.21,0.14l0.11,1.13l0,0q0.52,-0.57 1.19,-0.92l0,0l0,0q0.66,-0.35 1.33,-0.35l0,0l0,0q0.91,0 1.35,0.6l0,0l0,0q0.45,0.6 0.45,1.99l0,0l0,1.34l0,0q0,0.49 0,1.1l0,0l0,0q0.01,0.61 0.02,1.14l0,0zm8.57,-1.79l0.8,0l-0.1,2.49l-7.25,0l0,-0.57l1.29,-0.16l0,0q0.03,-0.88 0.03,-1.78l0,0l0,0q0,-0.9 0,-1.83l0,0l0,-0.68l0,0q0,-0.91 0,-1.81l0,0l0,0q0,-0.9 -0.03,-1.81l0,0l-1.29,-0.15l0,-0.57l6.97,0l0.1,2.49l-0.8,0l-0.31,-1.78l-3.3,0l0,0q-0.03,0.88 -0.03,1.76l0,0l0,0q0,0.89 0,1.78l0,0l2.09,0l0.19,-1.34l0.63,0l0,3.32l-0.63,0l-0.18,-1.32l-2.1,0l0,0q0,1.01 0,1.92l0,0l0,0q0,0.92 0.03,1.83l0,0l3.58,0l0.31,-1.79zm5.83,1.02l0,-2.15l0,0q-0.37,0.09 -0.71,0.21l0,0l0,0q-0.34,0.11 -0.57,0.19l0,0l0,0q-0.46,0.18 -0.73,0.37l0,0l0,0q-0.28,0.19 -0.42,0.37l0,0l0,0q-0.14,0.19 -0.18,0.37l0,0l0,0q-0.04,0.18 -0.04,0.33l0,0l0,0q0,0.28 0.08,0.45l0,0l0,0q0.07,0.17 0.19,0.3l0,0l0,0q0.32,0.32 0.85,0.32l0,0l0,0q0.17,0 0.32,-0.04l0,0l0,0q0.16,-0.03 0.32,-0.12l0,0l0,0q0.17,-0.09 0.38,-0.24l0,0l0,0q0.21,-0.15 0.51,-0.36l0,0zm2.24,0.56l0.28,0.31l0,0q-0.24,0.45 -0.52,0.6l0,0l0,0q-0.28,0.14 -0.62,0.14l0,0l0,0q-0.59,0 -0.92,-0.28l0,0l0,0q-0.34,-0.29 -0.44,-0.77l0,0l0,0q-0.28,0.28 -0.51,0.49l0,0l0,0q-0.24,0.21 -0.48,0.35l0,0l0,0q-0.24,0.14 -0.49,0.21l0,0l0,0q-0.25,0.07 -0.56,0.07l0,0l0,0q-0.38,0 -0.72,-0.11l0,0l0,0q-0.34,-0.11 -0.6,-0.34l0,0l0,0q-0.26,-0.22 -0.41,-0.55l0,0l0,0q-0.15,-0.33 -0.15,-0.76l0,0l0,0q0,-0.3 0.1,-0.58l0,0l0,0q0.1,-0.28 0.35,-0.53l0,0l0,0q0.25,-0.26 0.71,-0.52l0,0l0,0q0.45,-0.26 1.17,-0.51l0,0l0,0q0.32,-0.12 0.73,-0.23l0,0l0,0q0.42,-0.12 0.84,-0.24l0,0l0,-0.37l0,0q0,-0.51 -0.08,-0.84l0,0l0,0q-0.08,-0.33 -0.23,-0.52l0,0l0,0q-0.16,-0.18 -0.4,-0.26l0,0l0,0q-0.25,-0.08 -0.6,-0.08l0,0l0,0q-0.15,0 -0.32,0.02l0,0l0,0q-0.18,0.01 -0.39,0.05l0,0l-0.28,0.98l0,0q-0.2,0.67 -0.76,0.67l0,0l0,0q-0.29,0 -0.46,-0.16l0,0l0,0q-0.17,-0.16 -0.19,-0.44l0,0l0,0q0.19,-0.8 0.92,-1.28l0,0l0,0q0.73,-0.48 1.81,-0.48l0,0l0,0q1.1,0 1.63,0.56l0,0l0,0q0.54,0.56 0.54,1.9l0,0l0,3l0,0q0,0.82 0.46,0.82l0,0l0,0q0.17,0 0.29,-0.07l0,0l0,0q0.13,-0.08 0.23,-0.16l0,0l0.07,-0.09zm3.55,-3.12l0.42,0.15l0,0q1.07,0.4 1.49,0.91l0,0l0,0q0.43,0.51 0.43,1.17l0,0l0,0q0,0.39 -0.17,0.75l0,0l0,0q-0.17,0.37 -0.51,0.65l0,0l0,0q-0.34,0.28 -0.85,0.44l0,0l0,0q-0.51,0.17 -1.19,0.17l0,0l0,0q-0.6,0 -1.08,-0.13l0,0l0,0q-0.48,-0.13 -1.02,-0.41l0,0l-0.04,-1.53l0.77,0l0.27,1.2l0,0q0.49,0.23 1.13,0.23l0,0l0,0q0.8,0 1.19,-0.3l0,0l0,0q0.39,-0.29 0.39,-0.78l0,0l0,0q0,-0.45 -0.32,-0.71l0,0l0,0q-0.33,-0.27 -1.01,-0.52l0,0l-0.64,-0.24l0,0q-0.77,-0.28 -1.23,-0.74l0,0l0,0q-0.46,-0.45 -0.46,-1.12l0,0l0,0q0,-0.41 0.17,-0.77l0,0l0,0q0.18,-0.37 0.49,-0.65l0,0l0,0q0.32,-0.28 0.77,-0.44l0,0l0,0q0.46,-0.17 1.02,-0.17l0,0l0,0q0.57,0 1.03,0.15l0,0l0,0q0.46,0.14 0.93,0.42l0,0l-0.06,1.43l-0.73,0l-0.21,-1.12l0,0q-0.5,-0.24 -0.98,-0.24l0,0l0,0q-0.64,0 -0.97,0.28l0,0l0,0q-0.33,0.27 -0.33,0.74l0,0l0,0q0,0.42 0.29,0.67l0,0l0,0q0.28,0.24 1.01,0.51l0,0zm4.85,0.04l2.54,0l0,0q0.51,0 0.68,-0.21l0,0l0,0q0.16,-0.21 0.16,-0.52l0,0l0,0q0,-0.29 -0.11,-0.56l0,0l0,0q-0.12,-0.28 -0.33,-0.49l0,0l0,0q-0.2,-0.21 -0.47,-0.33l0,0l0,0q-0.28,-0.13 -0.6,-0.13l0,0l0,0q-0.29,0 -0.61,0.12l0,0l0,0q-0.31,0.12 -0.57,0.39l0,0l0,0q-0.26,0.28 -0.45,0.7l0,0l0,0q-0.19,0.43 -0.24,1.03l0,0zm4.45,0.6l-4.48,0l0,0q0.03,1.31 0.64,2.01l0,0l0,0q0.62,0.7 1.63,0.7l0,0l0,0q0.67,0 1.12,-0.28l0,0l0,0q0.44,-0.28 0.82,-0.73l0,0l0.34,0.26l0,0q-0.37,0.76 -1.04,1.2l0,0l0,0q-0.68,0.44 -1.65,0.44l0,0l0,0q-0.71,0 -1.29,-0.24l0,0l0,0q-0.57,-0.23 -0.98,-0.69l0,0l0,0q-0.4,-0.45 -0.63,-1.1l0,0l0,0q-0.22,-0.64 -0.22,-1.44l0,0l0,0q0,-0.8 0.25,-1.46l0,0l0,0q0.25,-0.67 0.69,-1.14l0,0l0,0q0.44,-0.48 1.03,-0.75l0,0l0,0q0.59,-0.26 1.25,-0.26l0,0l0,0q0.54,0 1.03,0.18l0,0l0,0q0.48,0.18 0.83,0.53l0,0l0,0q0.35,0.35 0.55,0.86l0,0l0,0q0.21,0.5 0.21,1.13l0,0l0,0q0,0.24 -0.03,0.43l0,0l0,0q-0.03,0.2 -0.07,0.35l0,0z"/>
  </g>
  <g transform="matrix(0.7672611364001093,0,0,0.7672611364001093,29.641974658598524,111.63694317999453) " fill="url(#4faacece-b0f8-4084-b825-3e9b30d646ad)" id="11a3c5aa-18d1-4b51-92cf-b5cdacaf371c">
   <path id="svg_3" d="m-17.95979,-86.8121a18.02,18.02 0 0 1 18,18a1,1 0 0 0 2,0a18.02,18.02 0 0 1 18,-18a1,1 0 0 0 0,-2a18.02,18.02 0 0 1 -18,-18a1,1 0 0 0 -2,0a18.02,18.02 0 0 1 -18,18a1,1 0 1 0 0,2zm19,-13.75a20.092,20.092 0 0 0 12.75,12.75a20.092,20.092 0 0 0 -12.75,12.75a20.092,20.092 0 0 0 -12.75,-12.75a20.092,20.092 0 0 0 12.75,-12.75zm19.622,-9.25a6.386,6.386 0 0 1 6.378,6.378a1,1 0 0 0 2,0a6.385,6.385 0 0 1 6.378,-6.378a1,1 0 0 0 0,-2a6.386,6.386 0 0 1 -6.378,-6.378a1,1 0 1 0 -2,0a6.386,6.386 0 0 1 -6.378,6.378a1,1 0 0 0 0,2zm7.378,-4.411a8.434,8.434 0 0 0 3.411,3.411a8.436,8.436 0 0 0 -3.41,3.411a8.434,8.434 0 0 0 -3.413,-3.41a8.433,8.433 0 0 0 3.412,-3.412zm5.577,32.832a1,1 0 0 0 1,1a3.592,3.592 0 0 1 3.588,3.589a1,1 0 0 0 2,0a3.592,3.592 0 0 1 3.588,-3.589a1,1 0 0 0 0,-2a3.592,3.592 0 0 1 -3.588,-3.588a1,1 0 1 0 -2,0a3.592,3.592 0 0 1 -3.588,3.588a1,1 0 0 0 -1,1zm5.588,-1.401a5.637,5.637 0 0 0 1.401,1.401a5.637,5.637 0 0 0 -1.4,1.402a5.637,5.637 0 0 0 -1.402,-1.402a5.637,5.637 0 0 0 1.401,-1.401zm-17.412,4.515l0,3l3,0a1,1 0 0 1 0,2l-3,0l0,3a1,1 0 0 1 -2,0l0,-3l-3,0a1,1 0 0 1 0,-2l3,0l0,-3a1,1 0 0 1 2,0zm-42,11l0,-3a1,1 0 0 1 2,0l0,3l3,0a1,1 0 0 1 0,2l-3,0l0,3a1,1 0 0 1 -2,0l0,-3l-3,0a1,1 0 0 1 0,-2l3,0zm3,-58a1,1 0 0 1 1,-1l3,0l0,-3a1,1 0 0 1 2,0l0,3l3,0a1,1 0 0 1 0,2l-3,0l0,3a1,1 0 0 1 -2,0l0,-3l-3,0a1,1 0 0 1 -1,-1zm29,-7a1,1 0 0 1 1,-1l1,0l0,-1a1,1 0 0 1 2,0l0,1l1,0a1,1 0 0 1 0,2l-1,0l0,1a1,1 0 0 1 -2,0l0,-1l-1,0a1,1 0 0 1 -1,-1zm-40,26a1,1 0 0 1 1,-1l1,0l0,-1a1,1 0 0 1 2,0l0,1l1,0a1,1 0 0 1 0,2l-1,0l0,1a1,1 0 0 1 -2,0l0,-1l-1,0a1,1 0 0 1 -1,-1zm61,42l0,1l1,0a1,1 0 0 1 0,2l-1,0l0,1a1,1 0 0 1 -2,0l0,-1l-1,0a1,1 0 0 1 0,-2l1,0l0,-1a1,1 0 0 1 2,0z"/>
  </g>
 </g>
</svg>