<svg id="ëÎÓÈ_1" data-name="ëÎÓÈ 1" xmlns="http://www.w3.org/2000/svg" viewBox="0 0 100.23 131.97"><defs><style>.cls-1{fill:#f79738;}.cls-2{fill:#4b1532;}.cls-3{fill:#d64e27;}.cls-4{fill:#2b91be;}.cls-5{fill:#983f40;}.cls-6{fill:#e69143;}.cls-7{fill:#d17d35;}.cls-8{fill:#0c2420;}.cls-9{fill:#109a70;}.cls-10{fill:#062f29;}.cls-11{fill:#026e61;}.cls-12{fill:#081714;}.cls-13{fill:#782829;}.cls-14{fill:#f17071;}.cls-15{fill:#2d9d7d;}.cls-16{fill:#66bc84;}.cls-17{fill:#06332c;}.cls-18{fill:#88c770;}.cls-19{fill:#e1ab25;}.cls-20{fill:#044738;}.cls-21{fill:#e55b62;}.cls-22{fill:#cc912a;}.cls-23{fill:#61b9da;}.cls-24{fill:#3483aa;}.cls-25{fill:#272b6a;}.cls-26{fill:#1e1f53;}.cls-27{fill:#a6ddeb;}.cls-28{fill:#66c8ce;}.cls-29{fill:#f1b5ab;}.cls-30{fill:#f5948d;}.cls-31{fill:#321312;}.cls-32{fill:#9d4236;}.cls-33{fill:#5b1436;}.cls-34{fill:#2e58a6;}.cls-35{fill:#f5a42a;}.cls-36,.cls-38{fill:#e67325;}.cls-36{opacity:0.8;}.cls-37{fill:#f5c91d;}.cls-39{fill:#ffdcb4;}.cls-40{fill:#1c4689;}.cls-41{fill:#3a1126;}</style></defs><polygon class="cls-1" points="96.62 17.01 96.16 39.35 80.81 39.35 80 20.35 80 17.92 91.72 17.28 91.9 17.27 96.62 17.01"/><path class="cls-2" d="M135.73,65.79h-2.25a.09.09,0,0,1-.08-.09V47.29a.08.08,0,0,1,.08-.09h2.25a.08.08,0,0,1,.09.09V65.7A.09.09,0,0,1,135.73,65.79Zm-2.16-.18h2.08V47.37h-2.08Z" transform="translate(-40.32 -27.44)"/><path class="cls-2" d="M132.36,47.53a.09.09,0,0,1-.08.09h0a.09.09,0,0,1-.09-.09l-.14-2.81h.17Z" transform="translate(-40.32 -27.44)"/><polygon class="cls-3" points="92.29 39.35 77.75 39.35 77.19 20.48 81.54 20.29 86.5 20.08 86.67 20.07 91.95 19.84 92.29 39.35"/><path class="cls-2" d="M131.35,66.16h-2.72a.09.09,0,0,1-.08-.09V49.42a.09.09,0,0,1,.08-.08h2.26a.08.08,0,0,1,.08.08l.46,16.63v0A.09.09,0,0,1,131.35,66.16ZM128.72,66h2.54l-.46-16.48h-2.08Z" transform="translate(-40.32 -27.44)"/><polygon class="cls-2" points="86.67 20.07 86.67 39.35 86.5 39.35 86.5 20.08 86.67 20.07"/><polygon class="cls-4" points="96.59 18.73 99.51 18.73 99.51 39.35 96.16 39.35 96.59 18.73"/><path class="cls-2" d="M139.17,66.23h-1.91l-.06,0a.14.14,0,0,1,0-.07l.21-18.22a.09.09,0,0,1,.09-.09h1.69a.09.09,0,0,1,.08.09V66.15A.09.09,0,0,1,139.17,66.23Zm-1.82-.17h1.73V48h-1.52Z" transform="translate(-40.32 -27.44)"/><polygon class="cls-5" points="84.85 39.35 77.75 39.35 77.19 20.48 81.54 20.29 84.85 39.35"/><rect class="cls-6" y="39.35" width="100.23" height="3.97"/><polygon class="cls-7" points="97.69 43.32 42.15 43.32 43.68 39.35 97 39.35 97.69 43.32"/><path class="cls-8" d="M84.61,60a9.71,9.71,0,0,1-2.54,6.82l-2.31.1A58.28,58.28,0,0,1,72,66.8c-2.54-.39-3.12-7.1-3.12-7.1l6.07.1Z" transform="translate(-40.32 -27.44)"/><path class="cls-9" d="M71.14,59.74l-1.08.06-.27,0-.86.06s-2.88-4.82-2.44-7.29S69.66,55.28,71.14,59.74Z" transform="translate(-40.32 -27.44)"/><path class="cls-10" d="M70.06,59.8l-.27,0a50.83,50.83,0,0,0-2.52-5.68A.13.13,0,1,1,67.5,54,53.41,53.41,0,0,1,70.06,59.8Z" transform="translate(-40.32 -27.44)"/><path class="cls-11" d="M74.42,59.88l-1.63-.07h-.26l-1.39-.06s.18-6.54,2.1-11,2.61-5.4,3.52-5.19S74.42,59.88,74.42,59.88Z" transform="translate(-40.32 -27.44)"/><path class="cls-10" d="M75.84,45.86C74.24,49,73.3,56,72.9,59c0,.34-.08.59-.11.79h-.26c0-.23.07-.51.11-.82.41-3,1.35-10.06,3-13.24a.12.12,0,0,1,.17-.06A.14.14,0,0,1,75.84,45.86Z" transform="translate(-40.32 -27.44)"/><path class="cls-9" d="M80.09,52.62h0c0,.1,0,.2,0,.3V53s0,.08,0,.13a59.13,59.13,0,0,1-1,6.75l-1.35,0H77.5l-1.49,0s.42-6.67.91-10S78.15,44,79.27,44,80.35,48.94,80.09,52.62Z" transform="translate(-40.32 -27.44)"/><path class="cls-10" d="M79,46.31c-.11,2.72-1,11.41-1.27,13.55H77.5c.22-2,1.14-10.64,1.27-13.55a.14.14,0,0,1,.13-.13A.13.13,0,0,1,79,46.31Z" transform="translate(-40.32 -27.44)"/><path class="cls-11" d="M83.36,52.44c-.16.94-.34,1.82-.5,2.52a37.82,37.82,0,0,1-1.07,3.81c-.24.74-.41,1.15-.41,1.15H79.71s.18-3.46.35-6.89v-.08c0-.1,0-.2,0-.3h0c.33-3.36,2.89-7.2,3.6-7S83.87,49.4,83.36,52.44Z" transform="translate(-40.32 -27.44)"/><path class="cls-10" d="M83.62,46.38a29.26,29.26,0,0,0-2.1,7.28c-.24,2.12-.75,5.25-.92,6.25h-.25c.15-1,.67-4.14.91-6.27a30.24,30.24,0,0,1,2.14-7.4.14.14,0,0,1,.19,0A.14.14,0,0,1,83.62,46.38Z" transform="translate(-40.32 -27.44)"/><path class="cls-9" d="M85.11,55.07A18.1,18.1,0,0,1,83.43,60l-.85,0h-.74s0-.45,0-1.15a14.41,14.41,0,0,1,.75-4.88,6.18,6.18,0,0,1,.82-1.45c1.44-2,3.86-3.48,4.17-3.19S85.72,52.11,85.11,55.07Z" transform="translate(-40.32 -27.44)"/><path class="cls-10" d="M87.12,50.05s-2.72,2.46-3.2,4c-.29,1-.73,3-1,4.54-.15.69-.24,1.11-.3,1.36h-.26c.07-.32.19-.85.3-1.4.32-1.52.76-3.59,1.06-4.56.49-1.6,3.15-4,3.27-4.11a.12.12,0,0,1,.18,0A.13.13,0,0,1,87.12,50.05Z" transform="translate(-40.32 -27.44)"/><path class="cls-12" d="M84.61,60a9.71,9.71,0,0,1-2.54,6.82l-2.31.1A58,58,0,0,0,75,59.8Z" transform="translate(-40.32 -27.44)"/><path class="cls-13" d="M54.34,60l-.12,0a10.42,10.42,0,0,1-1.09.23l-.23,0c-.28,0-.58.09-.92.13l-.59.07-1,.08c-.52,0-1.07,0-1.65,0q-.48,0-.93,0c-.7,0-1.36-.08-2-.14l-.21,0c-.4,0-.77-.09-1.1-.14h0c-1-.14-1.69-.29-1.69-.29a13.74,13.74,0,0,1,1.64-.35h.06c.37-.07.79-.12,1.27-.17l.38,0c.7-.06,1.48-.09,2.35-.08h.21c.47,0,.91,0,1.33.06s.93.06,1.33.11l.62.07c.42,0,.78.1,1.09.15l.18,0c.53.09.87.17,1,.21Z" transform="translate(-40.32 -27.44)"/><path class="cls-14" d="M53.55,65.58c-.61,1.08-2.15,1.51-4,1.57a24.65,24.65,0,0,1-3.93-.3C42.2,66.33,42.83,60,42.83,60a30.21,30.21,0,0,0,8.51.52,15.48,15.48,0,0,0,3-.52S54.54,63.79,53.55,65.58Z" transform="translate(-40.32 -27.44)"/><path class="cls-15" d="M44.54,60.33h0l-.9-.14-.19,0L42.8,60c-.43-.89-1.31-2.74-1.7-3.73a8.41,8.41,0,0,1-.26-3.37s1.34.35,2.51,2.6a11.19,11.19,0,0,1,1,3.31h0c.05.31.08.59.1.82C44.54,60.08,44.54,60.33,44.54,60.33Z" transform="translate(-40.32 -27.44)"/><path class="cls-16" d="M47.13,55.23h0c-.05.27-.09.55-.14.81a32.61,32.61,0,0,1-.84,3.43c-.13.43-.25.79-.32,1l-.21,0-.5-.06-.17,0-.43-.06h0c0-.17,0-.39-.05-.64s0-.53,0-.83h0a18.29,18.29,0,0,1,.14-3.36c.37-2.27,2.49-4.84,2.88-4.67S47.5,53.09,47.13,55.23Z" transform="translate(-40.32 -27.44)"/><path class="cls-15" d="M50.68,54.08c0,.13-.09.26-.14.4-.17.5-.35,1-.51,1.53a13.05,13.05,0,0,1-.51,1.34h0c-.32.74-.69,1.45-1,2s-.55,1-.72,1.23c-.39,0-.76,0-1.12-.06l-.18,0-.65-.06-.21,0q0-.44.15-1a25.87,25.87,0,0,1,1.36-4.27h0a17.23,17.23,0,0,1,1.24-2.51c.12-.18.24-.35.37-.52a5.7,5.7,0,0,1,1.41-1.36l.16-.09c.46-.24.84-.24,1,.06C51.59,51.3,51.19,52.56,50.68,54.08Z" transform="translate(-40.32 -27.44)"/><path class="cls-16" d="M52,59.64c0,.16,0,.32,0,.46h0v.36h0l-.57.06-.28,0h-.18l-.57,0c-.08-.26-.19-.66-.32-1.16s-.34-1.31-.52-2.11h0c-.16-.73-.32-1.53-.46-2.33l-.09-.6h0c0-.1,0-.2,0-.3-.09-.64-.16-1.3-.19-1.92-.12-2.14.1-4,1-4.11,1-.18,1.87,1.84,2.16,4.58,0,.51.09,1.06.11,1.61C52,56.4,52,58.39,52,59.64Z" transform="translate(-40.32 -27.44)"/><path class="cls-15" d="M53.91,55.76a26.14,26.14,0,0,1-.39,2.92c-.09.45-.18.83-.26,1.14s-.09.35-.13.48l-.23,0-.76.11-.16,0h0l-.57.06c0-.24,0-.56,0-1,0-.79,0-1.91.08-3.52a18.46,18.46,0,0,1,.41-3.38c.48-2.14,1.24-3.18,1.69-3.06C54.18,49.78,54.17,52.55,53.91,55.76Z" transform="translate(-40.32 -27.44)"/><path class="cls-16" d="M57.11,56.53A35.81,35.81,0,0,1,54.27,60l-.05,0-.64.15-.22,0-.23,0-.23,0c.05-.19.12-.37.18-.55.13-.38.28-.75.44-1.11,1.4-3.19,3.58-5.38,4.07-5.34S58.33,54.76,57.11,56.53Z" transform="translate(-40.32 -27.44)"/><path class="cls-17" d="M59.82,60.39a.16.16,0,0,1-.17-.15c0-.06-.68-5.88-1.11-8.55a.18.18,0,0,1,.35-.06c.42,2.68,1.09,8.51,1.1,8.57a.18.18,0,0,1-.15.19Z" transform="translate(-40.32 -27.44)"/><path class="cls-17" d="M57.32,60.48a.17.17,0,0,1-.17-.13S56,56.57,55.41,55a.17.17,0,1,1,.33-.11c.57,1.58,1.73,5.34,1.74,5.37a.18.18,0,0,1-.11.22Z" transform="translate(-40.32 -27.44)"/><path class="cls-17" d="M61.75,60.34h0a.17.17,0,0,1-.16-.19,61.88,61.88,0,0,1,1.22-7.25.17.17,0,0,1,.21-.13.17.17,0,0,1,.12.21,59.06,59.06,0,0,0-1.2,7.21A.17.17,0,0,1,61.75,60.34Z" transform="translate(-40.32 -27.44)"/><path class="cls-18" d="M58.78,52.06s1.62-4.25,1-4.67-1.1,2.17-1.1,2.17-.77-3.33-1.4-3.41.49,3.73.49,3.73-1.47-1.44-2-.94S58.78,52.06,58.78,52.06Z" transform="translate(-40.32 -27.44)"/><path class="cls-18" d="M55.81,55.76s1.22-4.21.63-4.38-1.14,2.35-1.19,2.19A32,32,0,0,0,55,49.36c-.26-.75-.79-.5-.65,1.22A11.84,11.84,0,0,0,55,53.63s-1.07-1.38-1.44-.69S55.81,55.76,55.81,55.76Z" transform="translate(-40.32 -27.44)"/><path class="cls-18" d="M59.6,58.39c0,.12-1.65-3-2.28-2.45s2.5,3.84,2.5,3.84,2.36-3.08,2.23-3.92S60.62,55.26,59.6,58.39Z" transform="translate(-40.32 -27.44)"/><path class="cls-18" d="M56.6,52.28c-.42.58,1.86,3.28,2.74,3.93a12.38,12.38,0,0,0,1.37-2.87c.3-1.22.56-2.54,0-2.53s-1.59,3.7-1.59,3.7S57.09,51.61,56.6,52.28Z" transform="translate(-40.32 -27.44)"/><path class="cls-18" d="M57.63,60.56s1.12-3.36.41-3.41-1.09,2-1.09,2-1.87-.92-2,0S57.63,60.56,57.63,60.56Z" transform="translate(-40.32 -27.44)"/><path class="cls-18" d="M61.87,59.11s2.54-1,2.34-1.34-2.34.42-2.34.42-.8-2.61-1.64-2.06S61.87,59.11,61.87,59.11Z" transform="translate(-40.32 -27.44)"/><path class="cls-18" d="M62.62,54.42s2.73-.8,2.43-2.13-1.92,1.24-1.92,1.24,1.3-3,.47-3.22-.93,3-.93,3-.71-1.7-1.37-1.26S62.62,54.42,62.62,54.42Z" transform="translate(-40.32 -27.44)"/><path class="cls-19" d="M66.39,64.65c-.41,1.5-1,2.23-3.73,2.45l-.67.05c-3.3.15-4.9-.36-5.52-1.29s-.9-5.54-.9-5.54l8.32-.2L66.72,60A19.89,19.89,0,0,1,66.39,64.65Z" transform="translate(-40.32 -27.44)"/><path class="cls-20" d="M43.59,60.19l-.19,0a23.48,23.48,0,0,0-2-5.76.09.09,0,0,1,0-.12.08.08,0,0,1,.12,0A24.39,24.39,0,0,1,43.59,60.19Z" transform="translate(-40.32 -27.44)"/><path class="cls-20" d="M47,52.11c-1.29,2.14-1.74,7.2-1.83,8.3l-.17,0c.09-1.13.52-6.17,1.85-8.37a.09.09,0,0,1,.12,0A.1.1,0,0,1,47,52.11Z" transform="translate(-40.32 -27.44)"/><path class="cls-20" d="M49.46,53.56c-.17.27-.33.56-.49.86a35.75,35.75,0,0,0-2.31,6.15l-.18,0a35.72,35.72,0,0,1,2.45-6.43c.12-.22.25-.45.38-.65a.08.08,0,0,1,.12,0A.1.1,0,0,1,49.46,53.56Z" transform="translate(-40.32 -27.44)"/><path class="cls-20" d="M51.11,60.57h-.18c0-1.06-.18-3.61-.39-6.09h0c-.11-1.3-.24-2.59-.39-3.64-.07-.46-.13-.88-.21-1.22a.11.11,0,0,1,.07-.11.09.09,0,0,1,.1.07c.07.33.14.72.2,1.17.13,1,.26,2.12.37,3.33h0C50.91,56.65,51.08,59.4,51.11,60.57Z" transform="translate(-40.32 -27.44)"/><path class="cls-20" d="M53.34,51.36c-.71,1.53-1,6.53-1.18,8.67,0,.17,0,.31,0,.42l-.16,0h0c0-.11,0-.24,0-.37h0A.22.22,0,0,0,52,60c.14-2.15.47-7.18,1.2-8.73a.08.08,0,0,1,.11,0A.08.08,0,0,1,53.34,51.36Z" transform="translate(-40.32 -27.44)"/><path class="cls-20" d="M57.12,54.82a25.12,25.12,0,0,0-3.54,5.4l-.22,0,.18-.33c.2-.39.52-1,.9-1.65A18.15,18.15,0,0,1,57,54.7a.08.08,0,0,1,.12,0A.09.09,0,0,1,57.12,54.82Z" transform="translate(-40.32 -27.44)"/><path class="cls-21" d="M53.55,65.58c-.61,1.08-2.15,1.51-4,1.57a24.73,24.73,0,0,0,1.81-6.59,15.48,15.48,0,0,0,3-.52S54.54,63.79,53.55,65.58Z" transform="translate(-40.32 -27.44)"/><path class="cls-22" d="M66.39,64.65c-.41,1.5-1,2.23-3.73,2.45a18,18,0,0,0,1.23-7L66.72,60A19.89,19.89,0,0,1,66.39,64.65Z" transform="translate(-40.32 -27.44)"/><path class="cls-23" d="M56.1,32.45a4.1,4.1,0,0,0-.87,2.32l-.89,0-4.48.28a49.2,49.2,0,0,1,4.68-4.72,12.72,12.72,0,0,1,1.31-1A22.67,22.67,0,0,0,56.1,32.45Z" transform="translate(-40.32 -27.44)"/><path class="cls-24" d="M56.1,32.45a4.1,4.1,0,0,0-.87,2.32l-.89,0,.2-4.44a12.72,12.72,0,0,1,1.31-1A22.67,22.67,0,0,0,56.1,32.45Z" transform="translate(-40.32 -27.44)"/><path class="cls-25" d="M122.63,150.34c0,.29-.4,2.83-.4,2.83s-6.75-11.6-12.4-18.29a36.67,36.67,0,0,1-8.56-17.14c-1.29-5.43-3.39-18.69-3.39-18.69l-.75.57-2.77,28.51c1.56,2.13,2.25,6.92,1.16,13s-5.08,16.45-5.08,16.45l-.37-.1-.91-.25s-.74-13.21-1-18.69-1.5-20.2-1.62-28.33c-.09-6,.31-15.4.5-19.87,0-.09,0-.18,0-.26,0-1.39.09-2.25.08-2.3l1.45.14,19.83,1.88-.11,6.79s.14,1.16.3,3c.11,1.29.23,2.92.33,4.74.23,4.5-.81,16.33-.81,16.33,2,1.27,6.7,3.75,9.52,9.69a37.56,37.56,0,0,1,2,5.78A112.31,112.31,0,0,1,122.63,150.34Z" transform="translate(-40.32 -27.44)"/><path class="cls-26" d="M122.63,150.34c0,.29-.4,2.83-.4,2.83s-6.75-11.6-12.4-18.29a36.67,36.67,0,0,1-8.56-17.14c-1.29-5.43-3.39-18.69-3.39-18.69l-.75.57-2.77,28.51c1.56,2.13,2.25,6.92,1.16,13s-5.08,16.45-5.08,16.45l-.37-.1c.76-4.09,2.66-14.15,3.76-18.71a19.2,19.2,0,0,0-.61-10.73s.33-6.58.61-13.85a102.17,102.17,0,0,0-.61-14.36,33.72,33.72,0,0,1-2.61-4.16c-.43-1.13-.4-5.29-.4-5.29L88.61,88l19.83,1.88-.11,6.79s.14,1.16.3,3c-1.52,1.71-3.73,4.48-4,6.5-.47,3.12-.18,14-.18,14s1.08,6.23,7.74,11.34a42.09,42.09,0,0,0,7.54,4.68A112.31,112.31,0,0,1,122.63,150.34Z" transform="translate(-40.32 -27.44)"/><path class="cls-27" d="M103.33,49.65c-.32,0-.64-.07-1-.08a13.5,13.5,0,0,0-1.49.06,46,46,0,0,0-8.12,1.68A11.71,11.71,0,0,1,94.3,49c.62-.61,3.47-1.49,5.81-1.49a8,8,0,0,1,1.12.08A7.26,7.26,0,0,1,103.33,49.65Z" transform="translate(-40.32 -27.44)"/><path class="cls-28" d="M103.33,49.65c-.32,0-.64-.07-1-.08a13.5,13.5,0,0,0-1.49.06,3.48,3.48,0,0,0-.78-2.1,8,8,0,0,1,1.12.08A7.26,7.26,0,0,1,103.33,49.65Z" transform="translate(-40.32 -27.44)"/><path class="cls-27" d="M111.75,56.64l-1.16-.23h0c-.68-.12-1.37-.24-2.08-.34s-1.23-.15-1.85-.21h0a17.46,17.46,0,0,0-7.17.71,5,5,0,0,0-1.84,1,4.11,4.11,0,0,0-.44.48,5.71,5.71,0,0,0-.41.6,1.71,1.71,0,0,0-.13.23,2.6,2.6,0,0,0-.13.24l-.12.26-.09.21-.13.33a.78.78,0,0,0-.05.14l0,.15,0,.08-.12.38c0,.09-.05.18-.07.27-.07.26-.14.54-.2.84s-.07.33-.1.54c-.88,4.92-2.88,24.21-2.88,24.21l.57.26-.57,1c.09,0,1.66-.55,0,.23s-5.44,0-5.44,0-.35-1-.41-7.1.06-16.15.06-16.15c-3.92-1-10.9-5-13.85-6.53A21.37,21.37,0,0,1,66.72,53,10.77,10.77,0,0,0,70,52.13l.21-.12a14.56,14.56,0,0,0,3.06-2.47,16.33,16.33,0,0,0,4.67,1.55C81.32,51.84,87,53.4,87,53.4c.25-.12.53-.24.8-.35,1.11-.46,2.33-.9,3.6-1.31l1.39-.43a37.74,37.74,0,0,1,9.61-1.74c.31,0,.63,0,1,.08s.81.11,1.21.19a17.15,17.15,0,0,1,3.27,1,6.92,6.92,0,0,1,2.53,1.57A8.09,8.09,0,0,1,111.43,55,7.65,7.65,0,0,1,111.75,56.64Z" transform="translate(-40.32 -27.44)"/><path class="cls-28" d="M87.2,61.77a54,54,0,0,0,8.85-1.51l0,.08-.12.38c0,.09-.05.18-.07.27-.07.26-.14.54-.2.84s-.07.33-.1.54c-.88,4.92-2.88,24.21-2.88,24.21l.57.26-.57,1c.09,0,1.66-.55,0,.23s-5.44,0-5.44,0-.35-1-.41-7.1.06-16.15.06-16.15c-3.92-1-10.9-5-13.85-6.53A21.37,21.37,0,0,1,66.72,53,10.77,10.77,0,0,0,70,52.13a26.58,26.58,0,0,0,3.27,3.15C74.94,56.57,81.79,61.51,87.2,61.77Z" transform="translate(-40.32 -27.44)"/><path class="cls-28" d="M111.75,56.64l-1.16-.23h0c-.68-.12-1.37-.24-2.08-.34L111.43,55A7.65,7.65,0,0,1,111.75,56.64Z" transform="translate(-40.32 -27.44)"/><path class="cls-29" d="M101.19,45.93l-.6,1.64A11.84,11.84,0,0,0,94.3,49l-.57-3.35c-2.14,1.88-3.26.88-3.61-1a8.77,8.77,0,0,1-.09-2.2c.23-3,.64-8.53,1.68-10v0c0,.15,0,.26,0,.33a33.11,33.11,0,0,0,.2,3.89,7,7,0,0,0,.56,2.19C93,37.57,94.2,37,95,37.45c.64.37.79,3.07.83,4.26,0,.34,0,.56,0,.56a3.93,3.93,0,0,0,1.22,2,5.72,5.72,0,0,0,.51.46,4.46,4.46,0,0,0,1.1.59h0A8.17,8.17,0,0,0,101.19,45.93Z" transform="translate(-40.32 -27.44)"/><path class="cls-30" d="M101.19,45.93l-.6,1.64A11.84,11.84,0,0,0,94.3,49l-.57-3.35c-2.14,1.88-3.26.88-3.61-1a5.17,5.17,0,0,0,5.73-3c0,.34,0,.56,0,.56a3.93,3.93,0,0,0,1.22,2,5.72,5.72,0,0,0,.51.46,4.46,4.46,0,0,0,1.1.59h0A8.17,8.17,0,0,0,101.19,45.93Z" transform="translate(-40.32 -27.44)"/><path class="cls-31" d="M94,99.87a.14.14,0,0,1-.13-.1.13.13,0,0,1,.09-.16l6.59-2a.14.14,0,0,1,.17.09.13.13,0,0,1-.09.16l-6.59,2Z" transform="translate(-40.32 -27.44)"/><path class="cls-31" d="M92.67,90.51a9.93,9.93,0,0,1-2.11.2,20.07,20.07,0,0,1-3.49-.34c0-.09,0-.18,0-.26a14.42,14.42,0,0,0,5.53.15.13.13,0,0,1,.16.1A.12.12,0,0,1,92.67,90.51Z" transform="translate(-40.32 -27.44)"/><polygon class="cls-32" points="58.37 17.84 58.36 17.83 58.37 17.83 58.37 17.84"/><path class="cls-32" d="M98.7,45.28a8.17,8.17,0,0,0,2.49.65l0-.09A10.24,10.24,0,0,1,98.7,45.28Z" transform="translate(-40.32 -27.44)"/><path class="cls-33" d="M106.62,37.66a5.23,5.23,0,0,1-1,1.66,33.64,33.64,0,0,0-3.52,4.91c-.17.46,0,1.61-.29,1.67a2.8,2.8,0,0,1-.67,0l0-.09a10.24,10.24,0,0,1-2.53-.56h0a5.28,5.28,0,0,1-1.61-1.05,5.76,5.76,0,0,1-1.22-2s0-4.35-.84-4.82-2,.12-2.51,1.43A7,7,0,0,1,92,36.69a29,29,0,0,1-.19-3.08c0-.49,0-.81,0-.81s0-.18,0-.33a6.72,6.72,0,0,1,0-2.32c.25-.81,1.57-2.42,7-2.69s6.93,2.11,7.85,4.59A8.49,8.49,0,0,1,106.62,37.66Z" transform="translate(-40.32 -27.44)"/><path class="cls-32" d="M97.08,44.23a5.75,5.75,0,0,1-1.22-2A3.9,3.9,0,0,0,97.08,44.23Z" transform="translate(-40.32 -27.44)"/><path class="cls-34" d="M93.44,79.12l-.22,2.64-.28,3.34-.29,3.56s-5.44-3.29-6.48-4.56-1.27-5.83.61-6.47S93.44,79.12,93.44,79.12Z" transform="translate(-40.32 -27.44)"/><path class="cls-34" d="M110.59,56.41h0l-3.93-.55h0s-1.33-4.33-2.07-6a17.15,17.15,0,0,1,3.27,1C108.43,52,110.1,55.21,110.59,56.41Z" transform="translate(-40.32 -27.44)"/><path class="cls-3" d="M90.53,157.37a6.55,6.55,0,0,0-4,0c-2.07.7-2.41,1.91-2.41,1.91h6.58Z" transform="translate(-40.32 -27.44)"/><path class="cls-3" d="M122.28,152.78s-1,4.37-1.26,4.83-2.14,1.44-2.14,1.67,2.65.18,3.4-.28,2.49-3.93,2.49-3.93l-2.24-4Z" transform="translate(-40.32 -27.44)"/><path class="cls-23" d="M109.83,97c-2.08,1.62-5.89,1.16-10.51.52-.5-.07-1-.15-1.47-.26a22.26,22.26,0,0,1-6.61-2.56s1.41-5,1.41-5.26v.93a16.49,16.49,0,0,0,5.24,2.37,18.91,18.91,0,0,0,3.74.63c5.48.34,8.08-.18,8.54-.69a4.19,4.19,0,0,0,.53-1.07C111.35,92.17,111.9,95.41,109.83,97Z" transform="translate(-40.32 -27.44)"/><path class="cls-35" d="M111.39,89.57s-.16.56-.38,1.21c-.09.28-.2.57-.31.85a4.19,4.19,0,0,1-.53,1.07c-.46.51-3.06,1-8.54.69a18.41,18.41,0,0,1-4.21-.76l-.92-.3-.25-.09a15.07,15.07,0,0,1-3.6-1.85V86.58l.57.26a33,33,0,0,0,3.91,1.41l.25.08a24.46,24.46,0,0,0,3.16.67c3.67.52,7.47,1.22,10.84.57Z" transform="translate(-40.32 -27.44)"/><path class="cls-34" d="M97.6,57.63a4,4,0,0,0-.44.47,5.71,5.71,0,0,0-.41.6,1.71,1.71,0,0,0-.13.23,1.83,1.83,0,0,0-.13.24l-.12.26-.09.21-.13.33a.78.78,0,0,0-.05.14c0,.07,0,.15-.08.23l-.12.38c0,.09-.05.18-.07.27-.07.26-.14.54-.2.84s-.07.33-.1.54C95,61.16,92,54.93,87.78,53.05c1.11-.46,2.33-.9,3.6-1.31a27.11,27.11,0,0,1,6.22,5.88Z" transform="translate(-40.32 -27.44)"/><path class="cls-35" d="M117.15,67.53l0,.28c0,.26-.08.52-.13.77-.75,4.27-4.44,20.71-4.44,20.71a11.52,11.52,0,0,1-1.16.28c-3.28.63-7,0-10.55-.52l-.29,0-.26,0-.26,0a30.69,30.69,0,0,1-6.8-2.08l-.57-.26s2-19.28,2.88-24.21c0-.21.07-.39.1-.54s0-.07,0-.1,0-.19.07-.29A8.1,8.1,0,0,1,97.21,58l.18-.2.21-.21a4.92,4.92,0,0,1,1.84-1.06,13.8,13.8,0,0,1,2.94-.67h0l.32,0a18.54,18.54,0,0,1,2.47-.08,37.72,37.72,0,0,1,6.58.85l2.75.57a3.21,3.21,0,0,1,2.35,2,2.56,2.56,0,0,1,.11.24C117.77,61.63,117.56,64.84,117.15,67.53Z" transform="translate(-40.32 -27.44)"/><path class="cls-36" d="M111.39,89.57s-.16.56-.38,1.21a15.39,15.39,0,0,1-3.71.5,28,28,0,0,1-9-1.45s-.55,1.63-.92,2.8l-.92-.3-.25-.09a15.07,15.07,0,0,1-3.6-1.85V86.58l.57.26a33,33,0,0,0,3.91,1.41l.25.08a24.46,24.46,0,0,0,3.16.67c3.67.52,7.47,1.22,10.84.57Z" transform="translate(-40.32 -27.44)"/><path class="cls-37" d="M49.06,35.17c.18-.06,8.26-.52,8.26-.52v3.29l-8.26.34Z" transform="translate(-40.32 -27.44)"/><path class="cls-38" d="M100.83,89.05l-.29,0-.26,0-.26,0a30.69,30.69,0,0,1-6.8-2.08l-.57-.26s2-19.28,2.88-24.21c0-.21.07-.39.1-.54s0-.07,0-.1,0-.19.07-.29A8.1,8.1,0,0,1,97.21,58l.18-.2.21-.21a4.92,4.92,0,0,1,1.84-1.06,13.8,13.8,0,0,1,2.94-.67h0l.32,0a18.54,18.54,0,0,1,2.47-.08c-3,4.81-4.22,8.5-4.5,19.41C100.51,81.38,100.65,86,100.83,89.05Z" transform="translate(-40.32 -27.44)"/><path class="cls-23" d="M104.83,57.5a1.56,1.56,0,0,1-2.21,0,4.47,4.47,0,0,0-4-1.38,6.55,6.55,0,0,0-4.44,3.42c-.48,1-1,2.49-1.68,4.24-1.47,4-3.48,9.49-6.4,13.38A8.81,8.81,0,0,1,79,81a10,10,0,0,1-7.33-2.77c-1.66-1.62-3.57-4.93-5.24-8.84h0a60.71,60.71,0,0,1-3.5-11c-.35-1.65-.71-3.83-1.06-6.24-1.16-8-2.18-18.38-2-19.16a1.56,1.56,0,0,1,3.07.43c0,1.19,1.38,16.51,3,24.32.32,1.51.69,3,1.09,4.4C69,69,71.69,74.43,73.47,75.74c5.22,3.84,8.38,1.89,10.13-.43,2.64-3.51,4.56-8.75,6-12.57.68-1.84,1.26-3.43,1.81-4.55a9.76,9.76,0,0,1,6.71-5.11,7.31,7.31,0,0,1,4.55.65h0a8.79,8.79,0,0,1,2.16,1.56A1.56,1.56,0,0,1,104.83,57.5Z" transform="translate(-40.32 -27.44)"/><path class="cls-39" d="M104.41,67.22,100.28,89l-.26,0,4.12-21.63a14.93,14.93,0,0,1-3.84-1.6l-.06,0h0a16.94,16.94,0,0,1-4.58-3.93l-.07-.09a.13.13,0,0,1,0-.18.14.14,0,0,1,.11,0,.12.12,0,0,1,.07.05,16.14,16.14,0,0,0,4.43,3.85,2.07,2.07,0,0,0,.25.15,14.63,14.63,0,0,0,3.85,1.57A.14.14,0,0,1,104.41,67.22Z" transform="translate(-40.32 -27.44)"/><path class="cls-37" d="M110.12,64.62a24,24,0,0,0,5.29.44l-3.66,20.68h-4.18Z" transform="translate(-40.32 -27.44)"/><path class="cls-37" d="M108.09,59.7l-.52,1.74s6,.7,8.31,0l-.47-2.19A35.21,35.21,0,0,1,108.09,59.7Z" transform="translate(-40.32 -27.44)"/><path class="cls-39" d="M97.38,88.33l-.87,4v0a.14.14,0,0,1-.12.09h0a.13.13,0,0,1-.1-.15v0l.88-4Z" transform="translate(-40.32 -27.44)"/><path class="cls-39" d="M102.7,55.87A16.52,16.52,0,0,0,101,61.48c0,.09,0,.18,0,.27-.29,1.81-.41,3.36-.43,3.74a.51.51,0,0,0,0,.09.12.12,0,0,1-.13.12h0s0,0,0,0l-.06,0h0a.15.15,0,0,1,0-.1,1.59,1.59,0,0,0,0-.22,40.43,40.43,0,0,1,.81-5.68l.06-.25a13,13,0,0,1,1.29-3.51h0Z" transform="translate(-40.32 -27.44)"/><path class="cls-39" d="M117.15,67.53l0,.28a12.05,12.05,0,0,1-2.93.32h-.38a.14.14,0,0,1-.13-.13c0-.69,0-2.49,0-4.23v-.26c0-1.91,0-3.67,0-3.7a.13.13,0,0,1,.12-.13l3.06-.43a2.56,2.56,0,0,1,.11.24l-3,.43c0,.86,0,6.37,0,8A12.65,12.65,0,0,0,117.15,67.53Z" transform="translate(-40.32 -27.44)"/><path class="cls-39" d="M113.81,63.78h0c-.08,0-8.56-.18-13-2.1a.12.12,0,0,1-.07-.17.13.13,0,0,1,.17-.06c4.44,1.89,12.87,2.06,13,2.07a.13.13,0,0,1,.13.13A.14.14,0,0,1,113.81,63.78Z" transform="translate(-40.32 -27.44)"/><path class="cls-39" d="M101.32,59.59a.13.13,0,0,1-.13.11h0l-.14,0A10.94,10.94,0,0,1,97.21,58l.18-.2a10.89,10.89,0,0,0,3.7,1.57l.13,0A.12.12,0,0,1,101.32,59.59Z" transform="translate(-40.32 -27.44)"/><path class="cls-31" d="M92.64,51.44a.13.13,0,0,1-.13-.13.13.13,0,0,1,.13-.12l.51-.14a61.77,61.77,0,0,1,6.79-1.44.12.12,0,0,1,.15.11.12.12,0,0,1-.11.14,58.22,58.22,0,0,0-6.76,1.45A3.06,3.06,0,0,1,92.64,51.44Z" transform="translate(-40.32 -27.44)"/><path class="cls-31" d="M93.73,45.8a.16.16,0,0,1-.11,0,.14.14,0,0,1,0-.18l.12-.09c.54-.43,2-1.57,1.72-2.18a.12.12,0,0,1,.07-.17.13.13,0,0,1,.17.06c.33.8-1,1.9-1.8,2.49l-.11.09A.13.13,0,0,1,93.73,45.8Z" transform="translate(-40.32 -27.44)"/><path class="cls-31" d="M92.64,41.41a.12.12,0,0,1-.12-.11.12.12,0,0,1,.1-.15A2.91,2.91,0,0,0,95.21,39,1.45,1.45,0,0,0,95,37.55a.13.13,0,0,1,.15-.21,1.68,1.68,0,0,1,.36,1.7,3.17,3.17,0,0,1-2.79,2.37Z" transform="translate(-40.32 -27.44)"/><path class="cls-31" d="M92.64,40.36l-.07,0a.14.14,0,0,1,0-.19c.51-.68,1.29-1.76,1.37-1.92a.13.13,0,0,1,.17-.07.14.14,0,0,1,.06.18c-.11.23-1.26,1.79-1.39,2A.16.16,0,0,1,92.64,40.36Z" transform="translate(-40.32 -27.44)"/><path class="cls-31" d="M93.59,39.94A1.82,1.82,0,0,1,93,39.8a.13.13,0,0,1-.07-.17.12.12,0,0,1,.17-.07c.48.19.6.11.63.08s0-.41-.12-.6a.14.14,0,0,1,0-.18.14.14,0,0,1,.18,0c.06.11.32.64.08.9A.39.39,0,0,1,93.59,39.94Z" transform="translate(-40.32 -27.44)"/><path class="cls-4" d="M49.84,41.19h0c-.13,0-.12-.16-.07-.76a4.66,4.66,0,0,0,0-1,.14.14,0,0,1,.06-.18.13.13,0,0,1,.17,0,2.93,2.93,0,0,1,0,1.12c0,.19,0,.41,0,.51a.14.14,0,0,1,0,.17A.2.2,0,0,1,49.84,41.19Z" transform="translate(-40.32 -27.44)"/><path class="cls-4" d="M51.32,40.87a.13.13,0,0,1-.13-.14V39.26a.12.12,0,0,1,.13-.13.12.12,0,0,1,.12.13v1.47A.13.13,0,0,1,51.32,40.87Z" transform="translate(-40.32 -27.44)"/><path class="cls-4" d="M53.39,40.13h0a.14.14,0,0,1-.12-.14,8.38,8.38,0,0,0,0-1,.14.14,0,0,1,0-.06.14.14,0,0,1,.23-.09s.09.09,0,1.11A.13.13,0,0,1,53.39,40.13Z" transform="translate(-40.32 -27.44)"/><path class="cls-4" d="M55.12,40.13A.13.13,0,0,1,55,40V38.69a.13.13,0,1,1,.26,0V40A.13.13,0,0,1,55.12,40.13Z" transform="translate(-40.32 -27.44)"/><path class="cls-40" d="M93.22,81.76l-.28,3.34c-1.82-1.12-6.19-4-5.71-5.33S91.53,80.68,93.22,81.76Z" transform="translate(-40.32 -27.44)"/><path class="cls-34" d="M97.88,63.84s-.8,3.15,0,3.5S99.37,65,99.37,65Z" transform="translate(-40.32 -27.44)"/><path class="cls-34" d="M101.27,66.07s-.94,3.49,0,3.92,1.63-3.22,1.63-3.22Z" transform="translate(-40.32 -27.44)"/><path class="cls-41" d="M106.62,37.66a5.23,5.23,0,0,1-1,1.66,33.64,33.64,0,0,0-3.52,4.91c-.17.46,0,1.61-.29,1.67a2.8,2.8,0,0,1-.67,0l0-.09a10.24,10.24,0,0,1-2.53-.56h0a5.28,5.28,0,0,1-1.61-1.05,5.76,5.76,0,0,1-1.22-2s0-4.35-.84-4.82-2,.12-2.51,1.43A7,7,0,0,1,92,36.69a29,29,0,0,1-.19-3.08,16.32,16.32,0,0,0,5.62,4.18C99,38.61,103.24,39.58,106.62,37.66Z" transform="translate(-40.32 -27.44)"/><path class="cls-24" d="M97.85,97.28a22.26,22.26,0,0,1-6.61-2.56s1.41-5,1.41-5.26v.93a16.49,16.49,0,0,0,5.24,2.37A20.21,20.21,0,0,0,97.85,97.28Z" transform="translate(-40.32 -27.44)"/><path class="cls-24" d="M67,62.21a54.73,54.73,0,0,1-5.19-10c-1.16-8-2.18-18.38-2-19.16a1.56,1.56,0,0,1,3.07.43c0,1.19,1.38,16.51,3,24.32C66.25,59.32,66.62,60.8,67,62.21Z" transform="translate(-40.32 -27.44)"/><path class="cls-24" d="M104.83,57.5a1.56,1.56,0,0,1-2.21,0,4.47,4.47,0,0,0-4-1.38,6.55,6.55,0,0,0-4.44,3.42c-.48,1-1,2.49-1.68,4.24-1.47,4-3.48,9.49-6.4,13.38A8.81,8.81,0,0,1,79,81a10,10,0,0,1-7.33-2.77c-1.66-1.62-3.57-4.93-5.24-8.84C68.45,71.9,71,75,72.26,76.74c2.34,3.2,7.7,3,10.91.78s6.4-9.09,7.7-12.9S93.38,57,96.05,55c1.71-1.31,4.47-1.45,6.58-1.23h0a8.79,8.79,0,0,1,2.16,1.56A1.56,1.56,0,0,1,104.83,57.5Z" transform="translate(-40.32 -27.44)"/><path class="cls-29" d="M73.24,49.54a6.86,6.86,0,0,1-3.17,2.67,9.43,9.43,0,0,1-3.35.79s-3.87-6.64-4.38-10.91-.81-7.5-.81-7.5-2.6-.41-3.52-2c0,0-.3,1.7-.64,1.67a1.44,1.44,0,0,1-.9-.55,4.26,4.26,0,0,1-.89-2.51c-.11-1.9.81-3.46,2.25-2.94a1.49,1.49,0,0,1,1.79-.75s2.72.12,4.16,4C63.78,31.59,70.82,46.82,73.24,49.54Z" transform="translate(-40.32 -27.44)"/><path class="cls-30" d="M70.07,52.21a9.43,9.43,0,0,1-3.35.79s-3.87-6.64-4.38-10.91-.81-7.5-.81-7.5-2.6-.41-3.52-2c0,0-.3,1.7-.64,1.67a1.44,1.44,0,0,1-.9-.55,3.72,3.72,0,0,0,.84-3.49s3.18,4,4.74,3.81c0,0,.74,7.17,2.36,10.68C65.6,47.33,68.57,50.64,70.07,52.21Z" transform="translate(-40.32 -27.44)"/></svg>